<?xml version="1.0" standalone="no"?>
<!DOCTYPE svg PUBLIC "-//W3C//DTD SVG 1.1//EN" "http://www.w3.org/Graphics/SVG/1.1/DTD/svg11.dtd" >
<svg xmlns="http://www.w3.org/2000/svg" xmlns:xlink="http://www.w3.org/1999/xlink" version="1.1">
<metadata>
Created by FontForge 20170731 at Mon Aug 20 13:43:28 2018
 By Aleksey,,,
Copyright (c) 2018 by Piotr ?apa. All rights reserved.
</metadata>
<defs>
<font id="GilmerHeavy" horiz-adv-x="0" >
  <font-face 
    font-family="Gilmer Heavy"
    font-weight="800"
    font-stretch="normal"
    units-per-em="2048"
    panose-1="0 0 9 0 0 0 0 0 0 0"
    ascent="1618"
    descent="-430"
    x-height="1044"
    cap-height="1434"
    bbox="-866 -559 3061 2014"
    underline-thickness="0"
    underline-position="0"
    unicode-range="U+0020-FB02"
  />
<missing-glyph horiz-adv-x="1024" 
d="M840 1618v-2048h-650v2048h650zM682 1481h-338v-68h133v-76h-135v-67h340v67h-135v76h135v68zM547 1217h-205v-213h340v69h-135v144zM477 1147v-74h-67v74h67zM682 948h-340v-67h135v-76h-135v-68h205v144h135v67zM682 825h-68v-135h-272v-69h340v204zM682 575h-205v-114
h70v47h67v-96h-204v163h-68v-231h340v231zM682 221h-340v-231h340v231zM614 154v-97h-204v97h204zM682 -57h-340v-68h143l-143 -96v-68h340v68h-209l143 96h66v68z" />
    <glyph glyph-name="uniFB01" unicode="fi" horiz-adv-x="1341" 
d="M1245 1044l-1 -1044h-327v758h-369v-758h-328v758h-190v286h190v74q0 187 113 297q112 109 326 109q223 0 381 -90l-77 -260q-133 67 -265 66q-62 0 -105 -33q-44 -33 -44 -89v-74h696z" />
    <glyph glyph-name="uniFB02" unicode="fl" horiz-adv-x="1368" 
d="M666 1524v-1q337 0 579 -142v-1382h-327v1204q-95 37 -218 37q-64 0 -107 -33q-44 -33 -44 -89v-74h246v-286h-246v-758h-328v758h-190v286h190v74q0 188 114 297q113 109 331 109z" />
    <glyph glyph-name="f_f.liga" unicode="ff" horiz-adv-x="1550" 
d="M1245 1118l-2 -71h287v-286h-287v-758h-327v758h-369v-758h-328v758h-190v286h190v74q0 187 101 297q100 109 287 109q145 0 246 -45l-78 -260q-53 22 -117 21q-51 0 -81 -33t-30 -91v-74h369v74q0 188 100 297t288 109q146 0 246 -45l-77 -260q-53 22 -117 21
q-51 0 -81 -33t-30 -90z" />
    <glyph glyph-name="f_f_i.liga" unicode="ffi" horiz-adv-x="2037" 
d="M1942 1044v-1044h-328v758h-369v-758h-327v758h-369v-758h-328v758h-190v286h190v74q0 188 105 297t302 109q146 0 246 -45l-77 -260q-53 23 -117 21q-53 0 -92 -33t-39 -89v-74h369v74q0 187 113 297q112 109 326 109q223 0 381 -90l-78 -260q-134 68 -264 66
q-61 0 -106 -33t-45 -89v-74h697z" />
    <glyph glyph-name="f_f_l.liga" unicode="ffl" horiz-adv-x="2064" 
d="M1362 1524v1q336 0 580 -142v-1382h-328v1204q-95 37 -217 37q-63 0 -108 -33t-45 -89v-74h246v-286h-246v-758h-327v758h-369v-758h-328v758h-190v286h190v74q0 188 105 297t302 109q145 0 246 -45l-77 -260q-52 23 -117 21q-59 0 -95 -33t-36 -91v-74h369v74
q0 188 114 297q113 109 331 109z" />
    <glyph glyph-name=".notdef" horiz-adv-x="1024" 
d="M840 1618v-2048h-650v2048h650zM682 1481h-338v-68h133v-76h-135v-67h340v67h-135v76h135v68zM547 1217h-205v-213h340v69h-135v144zM477 1147v-74h-67v74h67zM682 948h-340v-67h135v-76h-135v-68h205v144h135v67zM682 825h-68v-135h-272v-69h340v204zM682 575h-205v-114
h70v47h67v-96h-204v163h-68v-231h340v231zM682 221h-340v-231h340v231zM614 154v-97h-204v97h204zM682 -57h-340v-68h143l-143 -96v-68h340v68h-209l143 96h66v68z" />
    <glyph glyph-name=".null" 
 />
    <glyph glyph-name="nonmarkingreturn" horiz-adv-x="682" 
 />
    <glyph glyph-name="space" unicode=" " horiz-adv-x="491" 
 />
    <glyph glyph-name="exclam" unicode="!" horiz-adv-x="591" 
d="M164 502l-43 932h352l-43 -932h-266zM297 -16q-83 0 -139 55q-57 55 -57 138q0 78 57 132t139 54q79 0 135 -54t56 -132q0 -82 -56 -138q-55 -55 -135 -55z" />
    <glyph glyph-name="quotedbl" unicode="&#x22;" horiz-adv-x="839" 
d="M119 928l-37 506h303l-37 -506h-229zM492 928l-37 506h303l-37 -506h-229z" />
    <glyph glyph-name="numbersign" unicode="#" horiz-adv-x="1484" 
d="M1405 801h-264l-35 -230h264l-39 -243h-264l-51 -328h-266l51 328h-230l-51 -328h-266l51 328h-264l39 243h264l35 230h-264l39 243h264l53 338h266l-53 -338h229l54 338h266l-53 -338h264zM840 571l34 230h-229l-35 -230h230z" />
    <glyph glyph-name="dollar" unicode="$" horiz-adv-x="1374" 
d="M1303 426l2 -2q0 -176 -135 -300q-135 -125 -355 -150v-274h-278v287q-184 40 -312 155q-127 114 -183 260l324 100q43 -106 139 -172t231 -66q101 0 162 40q62 41 62 96q0 88 -153 138l-369 114q-149 46 -240 146q-90 99 -87 234q-2 158 117 275q118 117 309 144v277
h278v-287q170 -38 290 -136q122 -99 168 -223l-314 -92q-43 76 -129 124q-85 48 -187 48q-85 0 -138 -33q-52 -33 -52 -84q0 -73 96 -102l360 -115q187 -58 291 -147q103 -88 103 -255z" />
    <glyph glyph-name="percent" unicode="%" horiz-adv-x="2193" 
d="M502 612q-181 0 -305 121q-125 122 -125 297q0 176 123 297q122 121 306 121q183 0 307 -121t124 -297t-124 -297t-306 -121zM504 0l930 1434h254l-928 -1434h-256zM502 848h-1q79 0 132 53q52 52 52 129q0 78 -52 130t-132 52t-132 -52t-52 -130q0 -76 53 -129t132 -53z
M1691 -16q-181 0 -305 120q-125 120 -125 297t123 297t306 120q182 0 307 -120q124 -120 124 -297t-124 -297q-125 -120 -306 -120zM1691 219l-1 -3q80 0 132 54q52 53 52 129q0 79 -52 131q-53 53 -132 53q-80 0 -132 -52t-52 -130q0 -76 53 -129t132 -53z" />
    <glyph glyph-name="ampersand" unicode="&#x26;" horiz-adv-x="1492" 
d="M1493 0l-396 -3l-109 115q-190 -146 -411 -147q-197 0 -336 120t-139 310q0 117 63 225q63 107 186 184q-98 128 -98 243q0 197 129 305t346 108q176 0 300 -102q124 -101 142 -245l-292 -84q-12 65 -54 106q-41 40 -103 40q-67 0 -105 -37q-39 -38 -39 -96q0 -12 5 -30
q4 -16 9 -27q4 -9 17 -27q11 -15 17 -21q5 -5 18 -24l16 -16l316 -340q53 99 74 195l286 -82q-34 -172 -147 -340zM613 263v-1q86 0 177 64l-252 270q-109 -76 -109 -172q0 -67 50 -114t134 -47z" />
    <glyph glyph-name="quotesingle" unicode="'" horiz-adv-x="466" 
d="M119 928l-37 506h303l-37 -506h-229z" />
    <glyph glyph-name="parenleft" unicode="(" horiz-adv-x="665" 
d="M645 -276l-317 1q-232 377 -236 900q-4 513 236 901h317q-236 -388 -236 -901t236 -901z" />
    <glyph glyph-name="parenright" unicode=")" horiz-adv-x="665" 
d="M20 -276v-1q236 388 236 901t-236 901h318q240 -386 235 -901q-5 -524 -235 -900h-318z" />
    <glyph glyph-name="asterisk" unicode="*" horiz-adv-x="876" 
d="M795 1206l-193 -100l193 -100l-93 -158l-182 117l10 -217h-184l10 217l-182 -117l-92 158l192 100l-192 100l92 158l182 -115l-10 215h184l-10 -215l182 115z" />
    <glyph glyph-name="plus" unicode="+" horiz-adv-x="1146" 
d="M1034 846v-256h-332v-332h-256v332h-333v256h333v334h256v-334h332z" />
    <glyph glyph-name="comma" unicode="," horiz-adv-x="591" 
d="M82 -281l90 605h338l-174 -605h-254z" />
    <glyph glyph-name="hyphen" unicode="-" horiz-adv-x="983" 
d="M113 492v266h757v-266h-757z" />
    <glyph glyph-name="period" unicode="." horiz-adv-x="550" 
d="M276 -16h-2q-83 0 -138 55q-56 56 -56 138q0 78 57 132t138 54q80 0 137 -54t57 -132q0 -83 -57 -138q-56 -55 -136 -55z" />
    <glyph glyph-name="slash" unicode="/" horiz-adv-x="1165" 
d="M51 -186l811 1804h252l-811 -1804h-252z" />
    <glyph glyph-name="zero" unicode="0" horiz-adv-x="1341" 
d="M671 -29v-1q-285 0 -448 207q-163 206 -163 539t163 539q163 207 448 207t447 -207t162 -538q0 -332 -162 -539t-447 -207zM671 278v-4q135 0 201 116t66 323t-66 323t-201 116q-136 0 -203 -115q-68 -116 -68 -322t68 -322q67 -115 203 -115z" />
    <glyph glyph-name="one" unicode="1" horiz-adv-x="913" 
d="M469 1434h291v-1434h-344v1059l-303 -139l-82 288z" />
    <glyph glyph-name="two" unicode="2" horiz-adv-x="1214" 
d="M592 307l542 1v-307h-1063v227l553 514q81 73 116 126q36 54 36 116q0 83 -49 129q-50 47 -135 47t-144 -58q-61 -59 -80 -154l-306 88q23 176 167 302t356 126q239 0 385 -120q145 -120 145 -339q0 -129 -63 -234t-196 -226z" />
    <glyph glyph-name="three" unicode="3" horiz-adv-x="1247" 
d="M823 895l-3 -2q155 -38 249 -148t94 -279q0 -208 -151 -352q-152 -144 -376 -144q-254 0 -399 132t-177 318l301 86q18 -97 89 -170q70 -72 165 -72q102 0 162 60t60 142t-57 141t-157 59q-77 0 -129 -27l-56 197l232 294h-564v304h1010v-224z" />
    <glyph glyph-name="four" unicode="4" horiz-adv-x="1277" 
d="M1237 557v-299h-170v-258h-340v258h-666v246l474 930h364l-440 -877h268v258h340v-258h170z" />
    <glyph glyph-name="five" unicode="5" horiz-adv-x="1226" 
d="M682 944v-1q206 0 339 -138q134 -139 134 -339q0 -212 -150 -354q-149 -142 -376 -142q-232 0 -375 115q-144 115 -192 285l306 86q28 -82 93 -136t144 -54q101 0 162 59q60 59 60 149t-58 147q-59 57 -165 57q-124 0 -213 -62l-270 80l61 738h908v-304h-607l-16 -221
q99 35 215 35z" />
    <glyph glyph-name="six" unicode="6" horiz-adv-x="1220" 
d="M662 991l-1 -1q223 -16 366 -156q142 -139 142 -348q0 -221 -159 -368t-399 -147q-239 0 -400 147q-160 147 -160 370q0 142 101 303l407 643h383zM609 273l-1 1q101 0 161 60t60 154q0 90 -60 150t-161 60q-98 0 -159 -60t-61 -151q0 -94 60 -154t161 -60z" />
    <glyph glyph-name="seven" unicode="7" horiz-adv-x="1124" 
d="M31 1434h1052v-232l-524 -1202h-360l495 1126h-663v308z" />
    <glyph glyph-name="eight" unicode="8" horiz-adv-x="1261" 
d="M963 782l-1 -1q239 -111 237 -362q0 -190 -157 -319q-158 -129 -411 -129q-256 0 -414 128q-157 127 -157 321q0 254 238 362q-176 95 -176 294q0 164 139 275t369 111t369 -111q140 -111 140 -275q0 -199 -176 -294zM630 1197v1q-82 0 -132 -45q-49 -45 -49 -109
q0 -66 49 -111q50 -45 132 -45q83 0 132 46t49 110q0 63 -49 108q-50 45 -132 45zM630 254l-1 -2q103 0 165 56t62 140q0 86 -61 141t-165 55q-107 0 -168 -55t-61 -141q0 -84 61 -139t168 -55z" />
    <glyph glyph-name="nine" unicode="9" horiz-adv-x="1220" 
d="M610 1462v2q240 0 399 -147t159 -370q0 -143 -100 -303l-407 -643h-383l280 442q-224 17 -366 156t-142 348q0 221 160 368t400 147zM609 737h-1q98 0 159 60q62 60 62 150q0 94 -60 154t-160 60q-101 0 -161 -60t-60 -154q0 -90 60 -150t161 -60z" />
    <glyph glyph-name="colon" unicode=":" horiz-adv-x="550" 
d="M276 682h-2q-82 0 -138 56t-56 137q0 78 57 132t138 54q80 0 137 -54t57 -132q0 -83 -57 -138q-56 -55 -136 -55zM274 -16h-2q-83 0 -138 55q-56 56 -56 138q0 78 57 132t138 54q80 0 137 -54t57 -132q0 -83 -57 -138q-56 -55 -136 -55z" />
    <glyph glyph-name="semicolon" unicode=";" horiz-adv-x="600" 
d="M326 684v-2q-81 0 -139 56q-57 56 -57 138q0 78 57 132t139 54q80 0 135 -54q56 -54 56 -131q0 -82 -56 -138q-55 -55 -135 -55zM82 -283l90 605h338l-174 -605h-254z" />
    <glyph glyph-name="less" unicode="&#x3c;" horiz-adv-x="1136" 
d="M1014 1214v-276l-619 -219l619 -221v-277l-922 348v297z" />
    <glyph glyph-name="equal" unicode="=" horiz-adv-x="1146" 
d="M113 795v256h921v-256h-921zM113 385v256h921v-256h-921z" />
    <glyph glyph-name="greater" unicode="&#x3e;" horiz-adv-x="1136" 
d="M123 1214l921 -348v-297l-921 -348v277l618 221l-618 219v276z" />
    <glyph glyph-name="question" unicode="?" horiz-adv-x="1177" 
d="M410 502h-4q0 78 35 146t84 114t99 90t84 90q35 47 35 93q0 59 -45 95t-120 36q-84 0 -142 -63t-81 -165l-295 90q22 181 161 309q137 127 360 127q222 0 363 -117t141 -297q0 -86 -36 -161t-89 -125q-52 -50 -105 -93t-90 -87q-38 -44 -38 -82h-317zM565 -16h-1
q-83 0 -138 55q-56 56 -56 138q0 78 56 132t138 54q80 0 137 -54t57 -132q0 -83 -57 -138q-56 -55 -136 -55z" />
    <glyph glyph-name="at" unicode="@" horiz-adv-x="1990" 
d="M979 -362h-3q-394 0 -650 256q-257 257 -257 630q0 252 126 461t341 329q214 120 471 120q397 0 654 -254q256 -253 256 -645q0 -239 -123 -378t-311 -139q-217 0 -295 166q-109 -121 -256 -121q-186 0 -306 129t-120 330t120 331t306 130q142 0 242 -111v86h251v-639
q0 -58 24 -86.5t71 -27.5q77 0 126 88q50 89 50 240q0 306 -187 500q-187 195 -498 195q-304 0 -512 -202q-209 -203 -209 -501q0 -291 198 -486t497 -195q253 0 399 119l58 -201q-173 -124 -463 -124zM980 301l-4 2q90 0 149 62t59 162q0 98 -57 158t-149 60
q-96 0 -154 -60q-58 -59 -58 -159q0 -98 59 -162q59 -63 155 -63z" />
    <glyph glyph-name="A" unicode="A" horiz-adv-x="1507" 
d="M1157 0l-100 274h-606l-101 -274h-350l530 1434h447l530 -1434h-350zM559 571h389l-194 537z" />
    <glyph glyph-name="B" unicode="B" horiz-adv-x="1423" 
d="M1139 750h-1q223 -109 223 -340q0 -193 -134 -301q-133 -108 -368 -108h-737v1434h700q219 0 354 -108t135 -283q0 -197 -172 -294zM822 1143l-368 -2v-287h368q68 0 111 43q44 44 44 105t-44 102q-43 40 -111 39zM859 291q77 0 120 42q44 42 44 107q0 68 -43 108
t-121 40h-405v-297h405z" />
    <glyph glyph-name="C" unicode="C" horiz-adv-x="1583" 
d="M825 -29h-3q-325 0 -541 213t-216 533q0 316 215 531q214 214 536 214q286 0 471 -145q187 -146 233 -336l-332 -82q-28 97 -129 171q-100 73 -240 73q-182 0 -293 -123t-111 -301q0 -175 113 -302q112 -126 293 -126q140 0 240 71t128 168l332 -84q-46 -187 -231 -331
q-184 -144 -465 -144z" />
    <glyph glyph-name="D" unicode="D" horiz-adv-x="1529" 
d="M784 1434l-1 1q304 0 491 -199q188 -200 188 -519q0 -315 -186 -516t-492 -201h-661v1434h661zM775 306v-1q147 0 245 116t98 302q0 185 -97 295q-97 111 -246 111h-317v-823h317z" />
    <glyph glyph-name="E" unicode="E" horiz-adv-x="1284" 
d="M1202 1126h-747v-249h643v-297h-643v-273h745v-307h-1077v1434h1079v-308z" />
    <glyph glyph-name="F" unicode="F" horiz-adv-x="1220" 
d="M1190 1124h-727v-284h622v-303h-622v-537h-340v1434h1067v-310z" />
    <glyph glyph-name="G" unicode="G" horiz-adv-x="1636" 
d="M1569 815l-2 -169q0 -295 -201 -484t-528 -189q-335 0 -553 214q-219 214 -219 532t217 532t538 214q261 0 443 -127q183 -128 255 -318l-316 -90q-113 215 -378 215q-181 0 -298 -123t-117 -301q0 -179 120 -306t335 -127q145 0 235 69q89 68 112 167l-376 -2v293h733z
" />
    <glyph glyph-name="H" unicode="H" horiz-adv-x="1490" 
d="M1028 1434h340v-1434h-340v575h-565v-575h-340v1434h340v-551h565v551z" />
    <glyph glyph-name="I" unicode="I" horiz-adv-x="589" 
d="M123 0v1434h344v-1434h-344z" />
    <glyph glyph-name="J" unicode="J" horiz-adv-x="1282" 
d="M1169 1434v-942q0 -239 -151 -378q-152 -140 -403 -140q-214 0 -361 105q-146 105 -211 288l317 92q58 -191 249 -192q102 0 162 66t60 167v637h-628v297h966z" />
    <glyph glyph-name="K" unicode="K" horiz-adv-x="1464" 
d="M1042 0l-401 563l-178 -201v-362h-340v1434h340v-623l520 623h430l-549 -619l590 -815h-412z" />
    <glyph glyph-name="L" unicode="L" horiz-adv-x="1177" 
d="M463 311h674v-311h-1014v1434h340v-1123z" />
    <glyph glyph-name="M" unicode="M" horiz-adv-x="1767" 
d="M1321 1434h324v-1434h-340v840l-422 -576l-420 576v-840h-340v1434h323l439 -637z" />
    <glyph glyph-name="N" unicode="N" horiz-adv-x="1507" 
d="M1044 1434h340v-1434h-276l-645 821v-821h-340v1434h276l645 -822v822z" />
    <glyph glyph-name="O" unicode="O" horiz-adv-x="1654" 
d="M827 -29v-2q-327 0 -543 213t-216 533t216 533t543 213t543 -213t216 -532t-216 -532t-543 -213zM827 283q186 0 300 123t114 309t-114 309t-300 123t-300 -123t-114 -309t114 -309t300 -123z" />
    <glyph glyph-name="P" unicode="P" horiz-adv-x="1357" 
d="M813 1434l-2 -1q229 0 372 -158t143 -357q0 -202 -144 -360q-144 -157 -383 -157h-340v-401h-336v1434h690zM789 704l1 1q90 0 148 63q58 62 58 147t-55 147q-55 63 -138 63h-346v-421h332z" />
    <glyph glyph-name="Q" unicode="Q" horiz-adv-x="1642" 
d="M1575 0l-331 1l-59 68q-173 -95 -367 -97q-310 0 -530 215q-219 214 -219 530q0 315 219 530q220 215 530 215t530 -215q219 -215 219 -530q0 -275 -181 -486zM818 284l-1 -1q83 0 154 24l-316 359h379l146 -181q55 103 55 231q0 195 -115 314q-116 120 -302 120
q-187 0 -302 -121q-116 -122 -116 -313t116 -312q116 -120 302 -120z" />
    <glyph glyph-name="R" unicode="R" horiz-adv-x="1441" 
d="M1010 0l-306 471h-246v-471h-336v1434h717q227 0 368 -147t141 -337q0 -141 -77 -260t-216 -176l346 -514h-391zM458 1130l-1 -361h356q88 0 146 53q57 52 57 129q0 74 -55 126q-56 53 -133 53h-370z" />
    <glyph glyph-name="S" unicode="S" horiz-adv-x="1374" 
d="M725 -29l1 -6q-254 0 -429 126t-243 309l324 100q43 -106 139 -172t231 -66q101 0 162 40q62 41 62 96q0 89 -154 138l-369 114q-149 46 -240 146q-90 98 -88 234q-1 178 150 303q152 125 381 125q228 0 401 -109q175 -110 233 -267l-313 -92q-43 76 -129 124t-189 48
q-85 0 -138 -33q-52 -33 -52 -84q0 -73 96 -102l361 -115q188 -59 290 -147q102 -89 102 -255q0 -195 -163 -325t-426 -130z" />
    <glyph glyph-name="T" unicode="T" horiz-adv-x="1314" 
d="M1284 1434v-308h-457v-1126h-340v1126h-456v308h1253z" />
    <glyph glyph-name="U" unicode="U" horiz-adv-x="1499" 
d="M1042 1434h342v-838q0 -283 -168 -454t-469 -171q-303 0 -470 171q-167 172 -167 454v838h344v-832q0 -142 75 -231q75 -88 219 -88t219 88q75 89 75 231v832z" />
    <glyph glyph-name="V" unicode="V" horiz-adv-x="1490" 
d="M1116 1434h375l-559 -1434h-373l-559 1434h377l368 -998z" />
    <glyph glyph-name="W" unicode="W" horiz-adv-x="2066" 
d="M1708 1434h358l-428 -1434h-360l-244 852l-246 -852h-360l-428 1434h358l258 -947l265 947h305l264 -947z" />
    <glyph glyph-name="X" unicode="X" horiz-adv-x="1474" 
d="M1464 0h-409l-318 459l-317 -459h-410l504 721l-491 713h409l305 -449l305 449h410l-491 -713z" />
    <glyph glyph-name="Y" unicode="Y" horiz-adv-x="1415" 
d="M1034 1434h381l-534 -918v-516h-344v516l-537 918h383l326 -586z" />
    <glyph glyph-name="Z" unicode="Z" horiz-adv-x="1306" 
d="M535 301h710v-301h-1184v227l697 906h-686v301h1153v-232z" />
    <glyph glyph-name="bracketleft" unicode="[" horiz-adv-x="716" 
d="M676 1239h-236v-1229h236v-286h-553v1802h553v-287z" />
    <glyph glyph-name="backslash" unicode="\" horiz-adv-x="1165" 
d="M1114 -186h-252l-811 1804h252z" />
    <glyph glyph-name="bracketright" unicode="]" horiz-adv-x="716" 
d="M594 1526v-1802h-553v286h235v1229h-235v287h553z" />
    <glyph glyph-name="asciicircum" unicode="^" horiz-adv-x="1239" 
d="M1178 778h-326l-231 422l-234 -422h-326l398 717h323z" />
    <glyph glyph-name="underscore" unicode="_" horiz-adv-x="1269" 
d="M72 -328v246h1126v-246h-1126z" />
    <glyph glyph-name="grave" unicode="`" horiz-adv-x="509" 
d="M510 1204h-277l-233 291h356z" />
    <glyph glyph-name="a" unicode="a" horiz-adv-x="1320" 
d="M569 -29h-1q-213 0 -360 158q-147 157 -147 393t147 393q147 158 360 158q185 0 301 -125v96h328v-1044h-328v96q-119 -125 -300 -125zM628 262l-1 -1q110 0 180 73q71 74 71 189q0 114 -71 187q-71 72 -179 72q-106 0 -175 -72t-69 -187q0 -117 69 -189t175 -72z" />
    <glyph glyph-name="b" unicode="b" horiz-adv-x="1320" 
d="M752 1073l-1 -1q213 0 360 -157t147 -393t-147 -393q-147 -158 -360 -158q-181 0 -300 125v-96h-328v1495h328v-547q116 125 301 125zM691 261l-1 -1q106 0 175 73t69 189q0 115 -69 187t-175 72q-110 0 -180 -72q-70 -71 -70 -187t71 -189q71 -72 180 -72z" />
    <glyph glyph-name="c" unicode="c" horiz-adv-x="1189" 
d="M621 -29l-1 -4q-241 0 -401 158q-159 157 -159 393q0 235 158 393t396 158q209 0 350 -108t174 -245l-303 -86q-13 60 -74 106q-60 45 -144 45q-106 0 -172 -75t-66 -183t66 -186t172 -78q83 0 144 44q60 43 75 104l303 -86q-33 -137 -172 -243q-140 -107 -346 -107z" />
    <glyph glyph-name="d" unicode="d" horiz-adv-x="1320" 
d="M870 1495h327v-1495h-328v96q-119 -125 -300 -125q-213 0 -360 158q-147 157 -147 393t147 393q147 158 360 158q185 0 301 -125v547zM628 262l-1 -1q110 0 180 73q71 74 71 189q0 114 -71 187q-71 72 -179 72q-106 0 -175 -72t-69 -187q0 -117 69 -189t175 -72z" />
    <glyph glyph-name="e" unicode="e" horiz-adv-x="1222" 
d="M635 -29l-1 -1q-256 0 -415 153t-159 397q0 240 153 396t400 156q252 0 399 -153t147 -387q0 -58 -8 -108h-772q37 -180 261 -180q151 0 209 106l295 -86q-50 -114 -184 -203q-135 -90 -325 -90zM380 620h460q-8 74 -70 126t-159 52q-96 0 -158 -53q-61 -52 -73 -125z
" />
    <glyph glyph-name="f" unicode="f" horiz-adv-x="854" 
d="M549 1118v-73h287v-286h-287v-758h-328v758h-190v286h190v74q0 187 101 297q100 109 287 109q145 0 246 -45l-78 -260q-53 22 -117 21q-51 0 -81 -33t-30 -90z" />
    <glyph glyph-name="g" unicode="g" horiz-adv-x="1310" 
d="M860 1044l328 -2v-1005q0 -221 -150 -359t-400 -138q-356 0 -506 273l283 102q70 -109 231 -109q104 0 158 63t54 167v100q-116 -125 -289 -125q-221 0 -365 153t-144 379q0 239 144 384q144 146 367 146q173 0 289 -125v96zM628 303h-1q108 0 174 66t66 172t-66 172
t-174 66q-109 0 -176 -66t-67 -172t68 -172t176 -66z" />
    <glyph glyph-name="h" unicode="h" horiz-adv-x="1280" 
d="M760 1073v-2q203 0 305 -125q102 -124 102 -339v-608h-327v543q0 227 -187 227q-94 0 -148 -69t-54 -190v-510h-328v1495h328v-559q119 137 309 137z" />
    <glyph glyph-name="i" unicode="i" horiz-adv-x="569" 
d="M284 1165l-2 1q-78 0 -133 54t-55 132q0 76 56 129t133 53t133 -54t56 -129q0 -78 -55 -132t-133 -54zM114 1v1044h327v-1044h-327z" />
    <glyph glyph-name="j" unicode="j" horiz-adv-x="573" 
d="M289 1165l-2 1q-77 0 -133 54q-55 54 -55 132q0 76 56 129t134 53q77 0 133 -54q55 -54 55 -129q0 -78 -55 -132q-56 -54 -133 -54zM119 -30v1076h328v-1044q0 -218 -96 -339t-291 -121q-103 0 -206 45l71 250q38 -20 81 -20q56 -1 84.5 37.5t28.5 115.5z" />
    <glyph glyph-name="k" unicode="k" horiz-adv-x="1175" 
d="M807 0l-256 362l-100 -114v-248h-328v1495h328v-833l313 382h377l-387 -446l422 -598h-369z" />
    <glyph glyph-name="l" unicode="l" horiz-adv-x="573" 
d="M123 0v1495h328v-1495h-328z" />
    <glyph glyph-name="m" unicode="m" horiz-adv-x="1914" 
d="M1386 1073q191 0 303 -118q113 -119 113 -339v-616h-327v543q0 227 -166 227q-181 0 -183 -252v-518h-327v543q0 227 -166 227q-182 0 -182 -252v-518h-328v1044h328v-102q113 131 288 131q207 0 303 -139q130 139 344 139z" />
    <glyph glyph-name="n" unicode="n" horiz-adv-x="1280" 
d="M760 1073v-2q203 0 305 -125q102 -124 102 -339v-608h-327v543q0 227 -187 227q-94 0 -148 -69t-54 -190v-510h-328v1044h328v-108q119 137 309 137z" />
    <glyph glyph-name="o" unicode="o" horiz-adv-x="1245" 
d="M622 -29v-1q-242 0 -402 158q-159 158 -159 393t159 393q160 158 402 158q244 0 402 -157q159 -157 159 -393t-159 -393q-160 -158 -402 -158zM622 265v-1q111 0 177 72t66 185q0 112 -66 184t-177 72t-177 -72t-66 -184t66 -184t177 -72z" />
    <glyph glyph-name="p" unicode="p" horiz-adv-x="1320" 
d="M752 1073l-1 -1q213 0 360 -157t147 -393t-147 -393q-147 -158 -360 -158q-181 0 -300 125v-526h-328v1474h328v-96q116 125 301 125zM691 261l-1 -1q106 0 175 73t69 189q0 115 -69 187t-175 72q-110 0 -180 -72q-70 -71 -70 -187t71 -189q71 -72 180 -72z" />
    <glyph glyph-name="q" unicode="q" horiz-adv-x="1320" 
d="M870 1044h327v-1474h-328v526q-119 -125 -300 -125q-213 0 -360 158q-147 157 -147 393t147 393q147 158 360 158q185 0 301 -125v96zM628 262l-1 -1q110 0 180 73q71 74 71 189q0 114 -71 187q-71 72 -179 72q-106 0 -175 -72t-69 -187q0 -117 69 -189t175 -72z" />
    <glyph glyph-name="r" unicode="r" horiz-adv-x="819" 
d="M451 903l-1 2q47 86 131 128q83 42 196 28v-307q-168 28 -247 -48t-79 -270v-436h-328v1044h328v-141z" />
    <glyph glyph-name="s" unicode="s" horiz-adv-x="1073" 
d="M547 -29l2 -3q-193 0 -337 96q-145 97 -185 229l292 86q27 -68 90 -110t152 -42q58 0 95 23q36 22 36 54q0 51 -98 80l-250 74q-264 80 -264 291q0 137 128 230t306 93q168 0 295 -72t178 -195l-287 -82q-71 98 -189 98q-45 0 -78 -18t-33 -46q0 -41 60 -62l241 -67
q69 -19 120 -41q50 -22 96 -55q48 -35 72 -88q24 -54 24 -126q0 -152 -130 -249q-131 -98 -336 -98z" />
    <glyph glyph-name="t" unicode="t" horiz-adv-x="847" 
d="M729 295l79 -261q-129 -51 -256 -51q-184 0 -277 105t-93 289v381h-162v286h162v328h328v-328h281v-286h-281v-381q0 -109 108 -109q60 0 111 27z" />
    <glyph glyph-name="u" unicode="u" horiz-adv-x="1280" 
d="M829 1044h328v-1044h-328v109q-119 -137 -309 -138q-203 0 -305 125q-102 124 -102 339v608h327v-542q0 -227 187 -228q94 0 148 70q54 71 54 192v509z" />
    <glyph glyph-name="v" unicode="v" horiz-adv-x="1212" 
d="M854 1044h358l-421 -1044h-369l-422 1044h360l246 -671z" />
    <glyph glyph-name="w" unicode="w" horiz-adv-x="1705" 
d="M1368 1044h338l-360 -1044h-304l-188 586l-190 -586h-304l-360 1044h338l190 -626l189 626h272l191 -626z" />
    <glyph glyph-name="x" unicode="x" horiz-adv-x="1142" 
d="M1143 0h-369l-203 285l-202 -285h-369l377 526l-361 518h367l188 -270l189 270h366l-360 -518z" />
    <glyph glyph-name="y" unicode="y" horiz-adv-x="1236" 
d="M887 1044h350l-621 -1474h-333l186 455l14 2l-14 -2l-469 1019h358l273 -636z" />
    <glyph glyph-name="z" unicode="z" horiz-adv-x="1099" 
d="M510 268h518v-268h-950v205l497 571h-485v268h920v-204z" />
    <glyph glyph-name="braceleft" unicode="{" horiz-adv-x="727" 
d="M543 872v-6q0 -77 -35 -147q-34 -69 -114 -99q80 -32 114 -100q35 -70 35 -147v-254q0 -68 21 -95t80 -27h41v-287h-129q-332 0 -332 348v316q0 45 -30 75t-75 30h-39v287h39q45 0 75 30t30 75v316q0 348 332 348h129v-287h-41q-59 0 -80 -27t-21 -95v-254z" />
    <glyph glyph-name="bar" unicode="|" horiz-adv-x="512" 
d="M113 -256v1905h286v-1905h-286z" />
    <glyph glyph-name="braceright" unicode="}" horiz-adv-x="727" 
d="M606 768l39 4v-287h-39q-45 0 -75 -30t-30 -75v-316q0 -348 -332 -348h-129v287h41q59 0 80 27t21 95v254q0 77 35 147t114 101q-79 31 -114 101t-35 146v254q0 68 -21 95t-80 27h-41v287h129q332 0 332 -348v-316q0 -45 30 -75t75 -30z" />
    <glyph glyph-name="asciitilde" unicode="~" horiz-adv-x="1200" 
d="M383 516l-293 82q0 129 68 224t206 95q96 0 226 -57t153 -57q74 0 74 115l291 -84q0 -131 -66 -224t-201 -93q-96 0 -228 57t-154 57q-76 0 -76 -115z" />
    <glyph glyph-name="exclamdown" unicode="&#xa1;" horiz-adv-x="550" 
d="M274 1061q83 0 139 -55q57 -56 57 -138q0 -78 -57 -132t-139 -54q-80 0 -135 54q-56 54 -56 131q0 82 56 138t135 56zM408 543l43 -932h-353l43 932h267z" />
    <glyph glyph-name="cent" unicode="&#xa2;" horiz-adv-x="1179" 
d="M618 455h-2q83 0 144 44q60 43 75 102l303 -86q-27 -111 -129 -207t-255 -129v-213h-277v215q-185 45 -301 192q-115 146 -115 344q0 200 115 345q116 146 301 189v213h277v-211q157 -33 257 -130q101 -98 128 -210l-303 -86q-14 62 -74 107t-144 45q-106 0 -172 -76
q-66 -77 -66 -184q0 -108 66 -186t172 -78z" />
    <glyph glyph-name="sterling" unicode="&#xa3;" horiz-adv-x="1306" 
d="M551 315l696 -2v-315h-1163v315h133v242h-109v268h109v179q0 219 134 339q133 120 357 120q188 0 317 -114t147 -272l-305 -88q-34 172 -168 172q-70 0 -109 -47q-39 -46 -39 -129v-158h457v-268h-457v-242z" />
    <glyph glyph-name="currency" unicode="&#xa4;" horiz-adv-x="1286" 
d="M1120 655v-2q0 -130 -59 -237l174 -172l-182 -183l-170 173q-110 -61 -240 -61q-128 0 -240 62l-170 -173l-182 183l174 172q-59 107 -59 237t59 237l-174 172l182 182l170 -172q111 61 240 63q134 0 240 -62l170 172l182 -182l-174 -172q59 -107 59 -237zM641 449l-2 -1
q89 0 148 58q61 59 62 147q-2 89 -61 147q-61 59 -148 59q-86 0 -144 -58t-58 -147q0 -88 59 -147q58 -58 144 -58z" />
    <glyph glyph-name="yen" unicode="&#xa5;" horiz-adv-x="1435" 
d="M1425 1434l-430 -738h265v-174h-365l-4 -6v-102h369v-174h-369v-240h-344v240h-352v174h352v102l-4 6h-348v174h247l-432 738h383l326 -586l325 586h381z" />
    <glyph glyph-name="brokenbar" unicode="&#xa6;" horiz-adv-x="512" 
d="M113 911v738h286v-738h-286zM113 -256v737h286v-737h-286z" />
    <glyph glyph-name="section" unicode="&#xa7;" horiz-adv-x="1155" 
d="M942 461v2q86 -80 86 -215q0 -154 -129 -255q-128 -100 -330 -100q-184 0 -319 93t-168 218l283 86q59 -143 221 -137q56 1 90 27q35 26 35 54q0 50 -97 78l-254 78q-270 82 -270 300q0 146 150 234q-92 82 -93 213q0 141 124 235t298 94q163 0 284 -70t168 -192
l-287 -82q-56 91 -166 92q-44 2 -76 -19q-33 -21 -33 -51q0 -44 63 -63l242 -71q147 -44 228 -114t81 -204q0 -154 -131 -231zM500 627l196 -53q58 39 60 99q0 53 -101 86l-166 53q-83 -33 -81 -92q0 -67 92 -93z" />
    <glyph glyph-name="dieresis" unicode="&#xa8;" horiz-adv-x="722" 
d="M157 1149l-1 -1q-66 0 -112 46t-46 112t46 111t112 45q67 0 113 -46q47 -47 47 -109q0 -65 -47 -112q-46 -46 -112 -46zM562 1148l-1 -1q-66 0 -112 46t-46 112t46 111t112 45q67 0 113 -46q47 -47 47 -109q0 -65 -47 -112q-46 -46 -112 -46z" />
    <glyph glyph-name="copyright" unicode="&#xa9;" horiz-adv-x="1509" 
d="M756 29l-1 -1q-295 0 -495 198t-200 494q0 289 200 487t495 198q296 0 494 -198t198 -487q0 -295 -198 -493t-493 -198zM754 183h-1q228 0 381 154q153 155 153 384q0 227 -153 377t-381 150q-227 0 -382 -150q-154 -150 -154 -377q0 -229 155 -384q154 -154 382 -154z
M761 361h-1q-157 0 -257 102q-101 103 -101 253q0 151 101 252t252 101q134 0 223 -69q88 -69 111 -159l-158 -39q-12 46 -60 81q-47 34 -113 34q-85 0 -139 -57t-54 -143q0 -84 54 -144t140 -60q67 0 114 34q48 35 60 81l158 -41q-22 -87 -110 -157q-87 -69 -220 -69z" />
    <glyph glyph-name="guillemotleft" unicode="&#xab;" horiz-adv-x="1157" 
d="M614 1044l-204 -389l204 -389h-286l-215 389l215 389h286zM1044 1044l-204 -389l204 -389h-286l-215 389l215 389h286z" />
    <glyph glyph-name="logicalnot" unicode="&#xac;" horiz-adv-x="1208" 
d="M1096 952v-553h-277v297h-706v256h983z" />
    <glyph glyph-name="registered" unicode="&#xae;" horiz-adv-x="1509" 
d="M756 1405l-1 -2q293 0 492 -198q200 -198 200 -490t-199 -490q-200 -198 -492 -198q-296 0 -495 198q-200 198 -200 491t200 491q199 198 495 198zM754 180v1q228 0 381 153t153 381q0 229 -153 382t-381 153t-381 -153t-153 -382q0 -227 153 -381t381 -154zM1061 826
q0 -67 -37 -122q-38 -56 -102 -84l153 -242h-184l-133 221h-119v-221h-160v680h340q110 0 176 -71t66 -161zM639 910l-1 -169h168q44 0 70 25q27 26 27 61t-25 59q-26 24 -63 24h-176z" />
    <glyph glyph-name="macron" unicode="&#xaf;" horiz-adv-x="614" 
d="M0 1204v226h614v-226h-614z" />
    <glyph glyph-name="degree" unicode="&#xb0;" horiz-adv-x="839" 
d="M422 827l-1 -2q-154 0 -258 101q-103 100 -103 248q0 147 104 248t258 101q153 0 254 -100q102 -101 102 -247q0 -145 -103 -247t-253 -102zM421 1032q58 0 99 41t41 101t-41 101t-99 41q-66 0 -106 -40t-40 -102q0 -59 40 -100q40 -42 106 -42z" />
    <glyph glyph-name="plusminus" unicode="&#xb1;" horiz-adv-x="1146" 
d="M702 1028h332v-256h-332v-287h-256v287h-333v256h333v289h256v-289zM113 117v256h921v-256h-921z" />
    <glyph glyph-name="uni00B2" unicode="&#xb2;" horiz-adv-x="731" 
d="M406 1130h282v-208h-655v149l319 297q76 73 76 119q0 27 -19 45t-54 18q-79 0 -105 -125l-219 64q12 113 101 194q88 81 219 81q150 0 238 -70t88 -198q0 -71 -28 -123t-94 -109z" />
    <glyph glyph-name="uni00B3" unicode="&#xb3;" horiz-adv-x="743" 
d="M526 1432l1 -4q81 -26 128 -88q48 -63 48 -155q0 -124 -91 -206q-92 -83 -228 -83q-161 0 -247 79q-87 80 -105 193l211 62q11 -59 46 -93q37 -35 89 -35q46 0 71 24q26 24 26 63t-27 66t-82 27q-38 0 -75 -6l-35 127l125 135h-320v203h613v-164z" />
    <glyph glyph-name="acute" unicode="&#xb4;" horiz-adv-x="509" 
d="M0 1204l154 291h356l-234 -291h-276z" />
    <glyph glyph-name="paragraph" unicode="&#xb6;" horiz-adv-x="1538" 
d="M1446 1434l-1 -313h-170v-1552h-297v1552h-164v-1552h-307v952q-197 0 -327 130t-130 324q0 195 137 327t362 132h897z" />
    <glyph glyph-name="periodcentered" unicode="&#xb7;" horiz-adv-x="550" 
d="M276 403l-2 -1q-82 0 -138 56t-56 138q0 78 57 132t138 54q80 0 137 -54t57 -132q0 -82 -57 -138q-56 -55 -136 -55z" />
    <glyph glyph-name="cedilla" unicode="&#xb8;" horiz-adv-x="468" 
d="M221 -459h-2q-129 0 -221 72l35 121q56 -39 133 -38q78 2 78 54q0 46 -57 62q-57 17 -110 0l59 188h228l-35 -109q59 -11 99 -57t40 -103q0 -88 -67 -139t-180 -51z" />
    <glyph glyph-name="uni00B9" unicode="&#xb9;" horiz-adv-x="587" 
d="M276 1741h209v-819h-243v548l-183 -84l-59 209z" />
    <glyph glyph-name="guillemotright" unicode="&#xbb;" horiz-adv-x="1157" 
d="M399 1044l215 -389l-215 -389h-286l204 389l-204 389h286zM829 1044l215 -389l-215 -389h-286l205 389l-205 389h286z" />
    <glyph glyph-name="onequarter" unicode="&#xbc;" horiz-adv-x="1679" 
d="M242 614v549l-183 -84l-59 209l276 146h209v-820h-243zM1104 1434h215l-885 -1434h-215zM1659 346v-205h-90v-141h-230v141h-378v183l262 495h252l-244 -473h108v113h230v-113h90z" />
    <glyph glyph-name="onehalf" unicode="&#xbd;" horiz-adv-x="1681" 
d="M242 614v549l-183 -84l-59 209l276 146h209v-820h-243zM1104 1434h215l-885 -1434h-215zM1356 209l284 2v-209h-655v150l320 296q77 74 75 119q0 27 -19 45t-54 18q-80 0 -107 -125l-219 63q12 113 101 194q88 81 221 81q149 0 237 -71q87 -70 87 -198q0 -71 -28 -123
t-94 -109z" />
    <glyph glyph-name="threequarters" unicode="&#xbe;" horiz-adv-x="1835" 
d="M702 881l1 -3q0 -124 -91 -206q-92 -83 -228 -83q-161 0 -247 79q-87 80 -105 193l211 62q11 -59 46 -93q37 -35 89 -35q46 0 71 24q26 24 26 63t-27 66t-82 27q-38 0 -75 -6l-35 127l125 135h-320v203h613v-164l-148 -146q81 -26 128 -88q48 -63 48 -155zM1261 1431h215
l-885 -1434h-215zM1816 343v-205h-91v-141h-229v141h-379v183l262 495h252l-244 -473h109v113h229v-113h91z" />
    <glyph glyph-name="questiondown" unicode="&#xbf;" horiz-adv-x="1136" 
d="M578 1061q83 0 138 -55q56 -56 56 -138q0 -78 -57 -132t-138 -54q-79 0 -136 54t-57 131q0 83 57 138q58 56 137 56zM737 543l-1 -3q0 -78 -34 -145t-84 -114t-99 -90t-84 -90t-35 -93q0 -59 45 -95t120 -36q85 0 143 63q59 63 81 166l294 -91q-22 -181 -161 -309
q-137 -127 -359 -127q-221 0 -362 117t-141 297q0 87 37 161q37 75 90 126q49 48 105 94q52 44 90 87q38 44 38 82h317z" />
    <glyph glyph-name="Agrave" unicode="&#xc0;" horiz-adv-x="1507" 
d="M918 1593h-277l-233 291h356zM1157 0l-100 274h-606l-101 -274h-350l530 1434h447l530 -1434h-350zM559 571h389l-194 537z" />
    <glyph glyph-name="Aacute" unicode="&#xc1;" horiz-adv-x="1507" 
d="M1100 1884l-234 -291h-276l153 291h357zM1157 0l-100 274h-606l-101 -274h-350l530 1434h447l530 -1434h-350zM559 571h389l-194 537z" />
    <glyph glyph-name="Acircumflex" unicode="&#xc2;" horiz-adv-x="1507" 
d="M754 1720l-90 -143h-287l223 307h307l223 -307h-286zM1157 0l-100 274h-606l-101 -274h-350l530 1434h447l530 -1434h-350zM559 571h389l-194 537z" />
    <glyph glyph-name="Atilde" unicode="&#xc3;" horiz-adv-x="1507" 
d="M645 1653v2q-43 0 -43 -88h-207q0 319 213 319q66 0 151 -48t103 -48q43 0 43 88h207q0 -320 -213 -321q-65 0 -151 48q-85 48 -103 48zM1157 2l-100 274h-606l-101 -274h-350l530 1434h447l530 -1434h-350zM559 573h389l-194 537z" />
    <glyph glyph-name="Adieresis" unicode="&#xc4;" horiz-adv-x="1507" 
d="M548 1538v-1q-66 0 -112 46t-46 112t46 111q47 45 112 45q67 0 114 -46q48 -47 48 -109q0 -66 -48 -112q-47 -46 -114 -46zM954 1537l-1 -1q-66 0 -112 46t-46 112t46 111q47 45 112 45q67 0 113 -46q47 -47 47 -109q0 -65 -47 -112q-46 -46 -112 -46zM1155 -2l-100 274
h-606l-101 -274h-350l530 1434h447l530 -1434h-350zM557 569h389l-194 537z" />
    <glyph glyph-name="Aring" unicode="&#xc5;" horiz-adv-x="1507" 
d="M753 1499l-2 -2q-113 0 -190 74q-76 73 -76 185q0 111 76 184q77 74 191 74q115 0 191 -73t76 -184t-76 -184q-77 -74 -190 -74zM751 1841v-1q-39 0 -63 -24t-24 -61q0 -39 24 -63t63 -24t63 24t24 63q0 38 -24 62t-63 24zM1154 -3l-100 274h-606l-101 -274h-350
l530 1434h447l530 -1434h-350zM556 568h389l-194 537z" />
    <glyph glyph-name="AE" unicode="&#xc6;" horiz-adv-x="2050" 
d="M1968 1126h-659v-249h555v-297h-555v-273h657v-307h-983v279h-455l-161 -279h-367l838 1434h1130v-308zM702 582h281v483z" />
    <glyph glyph-name="Ccedilla" unicode="&#xc7;" horiz-adv-x="1583" 
d="M821 291l-4 2q140 0 240 71t128 168l332 -84q-41 -165 -190 -299q-151 -136 -379 -167l-28 -89q58 -11 99 -57q40 -46 40 -103q0 -88 -67 -139q-68 -51 -180 -51q-130 0 -221 72l35 121q56 -39 133 -38q78 2 78 54q0 46 -57 62q-57 17 -110 0l53 165q-289 35 -474 240
q-184 205 -184 498q0 316 215 531q214 214 536 214q286 0 471 -145q187 -146 233 -336l-332 -82q-28 97 -129 171q-100 73 -240 73q-182 0 -293 -123t-111 -301q0 -175 113 -302q112 -126 293 -126z" />
    <glyph glyph-name="Egrave" unicode="&#xc8;" horiz-adv-x="1284" 
d="M821 1593h-276l-234 291h357zM1202 1126h-747v-249h643v-297h-643v-273h745v-307h-1077v1434h1079v-308z" />
    <glyph glyph-name="Eacute" unicode="&#xc9;" horiz-adv-x="1284" 
d="M1004 1884l-234 -291h-276l153 291h357zM1202 1126h-747v-249h643v-297h-643v-273h745v-307h-1077v1434h1079v-308z" />
    <glyph glyph-name="Ecircumflex" unicode="&#xca;" horiz-adv-x="1284" 
d="M657 1720l-90 -143h-286l223 307h307l223 -307h-286zM1202 1126h-747v-249h643v-297h-643v-273h745v-307h-1077v1434h1079v-308z" />
    <glyph glyph-name="Edieresis" unicode="&#xcb;" horiz-adv-x="1284" 
d="M452 1538l-1 -1q-66 0 -112 46t-46 112t46 111t112 45q67 0 113 -46q47 -47 47 -109q0 -65 -47 -112q-46 -46 -112 -46zM857 1537l-2 -1q-66 0 -112 46t-46 112t47 111q46 45 112 45q67 0 113 -46q47 -47 47 -109q0 -65 -47 -112q-46 -46 -112 -46zM1198 1124h-747v-249
h643v-297h-643v-273h745v-307h-1077v1434h1079v-308z" />
    <glyph glyph-name="Igrave" unicode="&#xcc;" horiz-adv-x="589" 
d="M459 1593h-277l-233 291h356zM123 0v1434h344v-1434h-344z" />
    <glyph glyph-name="Iacute" unicode="&#xcd;" horiz-adv-x="589" 
d="M131 1593l154 291h356l-233 -291h-277zM123 0v1434h344v-1434h-344z" />
    <glyph glyph-name="Icircumflex" unicode="&#xce;" horiz-adv-x="589" 
d="M295 1720l-90 -143h-287l223 307h308l223 -307h-287zM123 0v1434h344v-1434h-344z" />
    <glyph glyph-name="Idieresis" unicode="&#xcf;" horiz-adv-x="589" 
d="M90 1538l-2 -1q-66 0 -112 46t-46 112t47 111t112 45q67 0 113 -46q47 -47 47 -109q0 -65 -47 -112q-46 -46 -112 -46zM493 1537l-1 -1q-66 0 -112 46t-46 112t46 111t112 45q67 0 113 -46q47 -47 47 -109q0 -65 -47 -112q-46 -46 -112 -46zM119 -2v1434h344v-1434h-344z
" />
    <glyph glyph-name="Eth" unicode="&#xd0;" horiz-adv-x="1591" 
d="M846 1434l-2 1q304 0 491 -199q188 -200 188 -519q0 -315 -186 -516t-491 -201h-662v563h-143v287h143v584h662zM836 306l-2 -1q147 0 245 116t98 302q0 185 -97 295q-98 111 -244 111h-318v-278h299v-287h-299v-258h318z" />
    <glyph glyph-name="Ntilde" unicode="&#xd1;" horiz-adv-x="1507" 
d="M645 1653v2q-43 0 -43 -88h-207q0 319 213 319q66 0 151 -48t103 -48q43 0 43 88h207q0 -320 -213 -321q-65 0 -151 48q-85 48 -103 48zM1044 1436h340v-1434h-276l-645 821v-821h-340v1434h276l645 -822v822z" />
    <glyph glyph-name="Ograve" unicode="&#xd2;" horiz-adv-x="1654" 
d="M991 1593h-276l-234 291h357zM827 -29v-2q-327 0 -543 213t-216 533t216 533t543 213t543 -213t216 -532t-216 -532t-543 -213zM827 283q186 0 300 123t114 309t-114 309t-300 123t-300 -123t-114 -309t114 -309t300 -123z" />
    <glyph glyph-name="Oacute" unicode="&#xd3;" horiz-adv-x="1654" 
d="M664 1593l153 291h357l-234 -291h-276zM827 -29v-2q-327 0 -543 213t-216 533t216 533t543 213t543 -213t216 -532t-216 -532t-543 -213zM827 283q186 0 300 123t114 309t-114 309t-300 123t-300 -123t-114 -309t114 -309t300 -123z" />
    <glyph glyph-name="Ocircumflex" unicode="&#xd4;" horiz-adv-x="1654" 
d="M827 1720l-90 -143h-286l223 307h307l223 -307h-286zM827 1462v-2q327 0 543 -213t216 -532t-216 -532t-543 -213t-543 213t-216 533t216 533t543 213zM827 283q186 0 300 123t114 309t-114 309t-300 123t-300 -123t-114 -309t114 -309t300 -123z" />
    <glyph glyph-name="Otilde" unicode="&#xd5;" horiz-adv-x="1654" 
d="M973 1556v1q-65 0 -151 48t-103 48q-43 0 -43 -88h-207q0 319 213 319q66 0 151 -48q86 -48 103 -48q43 0 43 88h207q0 -320 -213 -320zM827 -28v-2q-327 0 -543 213t-216 533t216 533t543 213t543 -213t216 -532t-216 -532t-543 -213zM827 284q186 0 300 123t114 309
t-114 309t-300 123t-300 -123t-114 -309t114 -309t300 -123z" />
    <glyph glyph-name="Odieresis" unicode="&#xd6;" horiz-adv-x="1654" 
d="M622 1538l-1 -1q-66 0 -112 46t-46 112t46 111t112 45q67 0 113 -46q47 -47 47 -109q0 -65 -47 -112q-46 -46 -112 -46zM1027 1537l-2 -1q-66 0 -112 46t-46 112t47 111q46 45 112 45q67 0 113 -46q47 -47 47 -109q0 -65 -47 -112q-46 -46 -112 -46zM824 -31v-2
q-327 0 -543 213t-216 533t216 533t543 213t543 -213t216 -532t-216 -532t-543 -213zM824 281q186 0 300 123t114 309t-114 309t-300 123t-300 -123t-114 -309t114 -309t300 -123z" />
    <glyph glyph-name="multiply" unicode="&#xd7;" horiz-adv-x="1087" 
d="M975 969l-250 -252l248 -248l-180 -182l-248 250l-250 -250l-180 182l247 248l-249 252l182 180l250 -250l248 250z" />
    <glyph glyph-name="Oslash" unicode="&#xd8;" horiz-adv-x="1654" 
d="M1331 1284h-1q256 -217 256 -567q0 -319 -216 -532t-544 -213q-200 0 -358 82l-59 -84h-215l127 181q-121 101 -187 249q-66 147 -66 317q0 319 216 532t543 213q196 0 359 -82l57 84h215zM411 717h-1q0 -173 100 -295l487 694q-83 33 -172 33q-186 0 -300 -123
t-114 -309zM825 285q185 0 301 123q115 122 115 310q0 176 -102 294l-486 -695q84 -32 172 -32z" />
    <glyph glyph-name="Ugrave" unicode="&#xd9;" horiz-adv-x="1499" 
d="M913 1593h-276l-234 291h357zM1042 1434h342v-838q0 -283 -168 -454t-469 -171q-303 0 -470 171q-167 172 -167 454v838h344v-832q0 -142 75 -231q75 -88 219 -88t219 88q75 89 75 231v832z" />
    <glyph glyph-name="Uacute" unicode="&#xda;" horiz-adv-x="1499" 
d="M1096 1884l-234 -291h-276l153 291h357zM1042 1434h342v-838q0 -283 -168 -454t-469 -171q-303 0 -470 171q-167 172 -167 454v838h344v-832q0 -142 75 -231q75 -88 219 -88t219 88q75 89 75 231v832z" />
    <glyph glyph-name="Ucircumflex" unicode="&#xdb;" horiz-adv-x="1499" 
d="M750 1720l-91 -143h-286l223 307h307l223 -307h-286zM1042 1434h342v-838q0 -283 -168 -454t-469 -171q-303 0 -470 171q-167 172 -167 454v838h344v-832q0 -142 75 -231q75 -88 219 -88t219 88q75 89 75 231v832z" />
    <glyph glyph-name="Udieresis" unicode="&#xdc;" horiz-adv-x="1499" 
d="M544 1538v-1q-66 0 -112 46t-46 112t46 111t112 45q67 0 114 -46q48 -47 48 -109q0 -66 -48 -112q-47 -46 -114 -46zM950 1537l-1 -1q-66 0 -112 46t-46 112t46 111q47 45 112 45q67 0 113 -46q47 -47 47 -109q0 -65 -47 -112q-46 -46 -112 -46zM1040 1432h342v-838
q0 -283 -168 -454t-469 -171q-303 0 -470 171q-167 172 -167 454v838h344v-832q0 -142 75 -231q75 -88 219 -88t219 88q75 89 75 231v832z" />
    <glyph glyph-name="Yacute" unicode="&#xdd;" horiz-adv-x="1415" 
d="M1055 1884l-234 -291h-276l153 291h357zM1034 1434h381l-534 -918v-516h-344v516l-537 918h383l326 -586z" />
    <glyph glyph-name="Thorn" unicode="&#xde;" horiz-adv-x="1357" 
d="M813 1251l-2 -2q230 0 372 -157q143 -158 143 -358q0 -203 -144 -359t-383 -156h-340v-219h-336v1434h336v-183h354zM789 520l1 2q90 0 148 63q58 62 58 147t-55 147q-55 63 -138 63h-346v-422h332z" />
    <glyph glyph-name="germandbls" unicode="&#xdf;" horiz-adv-x="1265" 
d="M983 807l-1 -3q221 -117 221 -361q0 -211 -138 -328t-384 -117h-102v287h90q98 0 152 45t54 129q0 174 -218 174h-69v260h31q81 0 133 47q51 47 51 131q0 73 -46 116q-47 44 -124 44q-90 0 -142 -67t-52 -178v-987h-327v981q0 240 141 390t375 150q218 0 360 -120
t142 -308t-147 -285z" />
    <glyph glyph-name="agrave" unicode="&#xe0;" horiz-adv-x="1320" 
d="M807 1204h-277l-233 291h356zM569 -29h-1q-213 0 -360 158q-147 157 -147 393t147 393q147 158 360 158q185 0 301 -125v96h328v-1044h-328v96q-119 -125 -300 -125zM628 262l-1 -1q110 0 180 73q71 74 71 189q0 114 -71 187q-71 72 -179 72q-106 0 -175 -72t-69 -187
q0 -117 69 -189t175 -72z" />
    <glyph glyph-name="aacute" unicode="&#xe1;" horiz-adv-x="1320" 
d="M479 1204l154 291h356l-233 -291h-277zM569 -29h-1q-213 0 -360 158q-147 157 -147 393t147 393q147 158 360 158q185 0 301 -125v96h328v-1044h-328v96q-119 -125 -300 -125zM628 262l-1 -1q110 0 180 73q71 74 71 189q0 114 -71 187q-71 72 -179 72q-106 0 -175 -72
t-69 -187q0 -117 69 -189t175 -72z" />
    <glyph glyph-name="acircumflex" unicode="&#xe2;" horiz-adv-x="1320" 
d="M643 1331l-90 -143h-287l223 307h308l223 -307h-287zM870 1044h327v-1044h-328v96q-119 -125 -300 -125q-213 0 -360 158q-147 157 -147 393t147 393q147 158 360 158q185 0 301 -125v96zM628 262l-1 -1q110 0 180 73q71 74 71 189q0 114 -71 187q-71 72 -179 72
q-106 0 -175 -72t-69 -187q0 -117 69 -189t175 -72z" />
    <glyph glyph-name="atilde" unicode="&#xe3;" horiz-adv-x="1320" 
d="M788 1167l-1 1q-66 0 -150 48t-102 48q-43 0 -43 -88h-207q0 319 213 319q66 0 150 -48t104 -48q43 0 43 88h206q0 -320 -213 -320zM568 -28h-1q-213 0 -360 158t-147 393t147 393t360 158q185 0 301 -125v96h328v-1044h-328v96q-119 -125 -300 -125zM627 263l-1 -1
q110 0 180 73q71 74 71 189q0 114 -71 187q-70 72 -179 72q-106 0 -175 -72t-69 -187q0 -117 69 -189t175 -72z" />
    <glyph glyph-name="adieresis" unicode="&#xe4;" horiz-adv-x="1320" 
d="M438 1149l-1 -1q-66 0 -112 46t-46 112t46 111q47 45 112 45q67 0 113 -46q47 -47 47 -109q0 -65 -47 -112q-46 -46 -112 -46zM842 1148v-1q-66 0 -112 46t-46 112t46 111t112 45q67 0 114 -46q48 -47 48 -109q0 -66 -48 -112q-47 -46 -114 -46zM567 -31h-1
q-213 0 -360 158q-147 157 -147 393t147 393q147 158 360 158q185 0 301 -125v96h328v-1044h-328v96q-119 -125 -300 -125zM626 260l-1 -1q110 0 180 73q71 74 71 189q0 114 -71 187q-71 72 -179 72q-106 0 -175 -72t-69 -187q0 -117 69 -189t175 -72z" />
    <glyph glyph-name="aring" unicode="&#xe5;" horiz-adv-x="1320" 
d="M643 1110l-2 -4q-114 0 -190 74q-75 74 -75 185t75 185q76 74 191 74q117 0 191 -73q75 -74 75 -184q0 -111 -75 -184q-74 -73 -190 -73zM641 1278v-1q39 0 63 24t24 63q0 38 -24 62t-63 24t-63 -24t-24 -61q0 -39 24 -63t63 -24zM567 -34h-1q-213 0 -360 158t-147 393
t147 393t360 158q185 0 301 -125v96h328v-1044h-328v96q-119 -125 -300 -125zM626 257l-1 -1q110 0 180 73q71 74 71 189q0 114 -71 187q-71 72 -179 72q-106 0 -175 -72t-69 -187q0 -117 69 -189t175 -72z" />
    <glyph glyph-name="ae" unicode="&#xe6;" horiz-adv-x="2041" 
d="M1980 532l-2 -1q0 -65 -10 -126h-768q19 -78 86 -123q66 -45 166 -45q127 0 183 86l293 -88q-62 -119 -178 -192t-270 -73q-207 0 -324 131v-102h-287v96q-119 -125 -300 -125q-213 0 -360 158t-147 393t147 393t360 158q185 0 301 -125v96h287v-110q118 139 315 139
q224 0 366 -150q142 -149 142 -390zM1194 617l470 2q-11 81 -70 131q-60 51 -156 51q-98 0 -164 -54q-67 -55 -80 -130zM628 263l-1 -1q110 0 180 73q71 74 71 189q0 114 -71 187q-71 72 -179 72q-106 0 -175 -72t-69 -187q0 -117 69 -189t175 -72z" />
    <glyph glyph-name="ccedilla" unicode="&#xe7;" horiz-adv-x="1189" 
d="M618 260l-4 -4q83 0 144 44q60 43 75 104l303 -86q-27 -114 -130 -209q-104 -97 -261 -128l-29 -93q58 -10 99 -57q40 -46 40 -103q0 -88 -67 -139q-68 -51 -180 -51q-130 0 -221 72l35 121q56 -39 133 -38q78 1 78 54q0 45 -57 62t-110 0l53 168q-203 33 -330 183
q-128 151 -128 359q0 235 158 393t396 158q209 0 350 -108t174 -245l-303 -86q-13 60 -74 106q-60 45 -144 45q-106 0 -172 -75t-66 -183t66 -186t172 -78z" />
    <glyph glyph-name="egrave" unicode="&#xe8;" horiz-adv-x="1222" 
d="M780 1204h-276l-234 291h357zM635 -29l-1 -1q-256 0 -415 153t-159 397q0 240 153 396t400 156q252 0 399 -153t147 -387q0 -58 -8 -108h-772q37 -180 261 -180q151 0 209 106l295 -86q-50 -114 -184 -203q-135 -90 -325 -90zM380 620h460q-8 74 -70 126t-159 52
q-96 0 -158 -53q-61 -52 -73 -125z" />
    <glyph glyph-name="eacute" unicode="&#xe9;" horiz-adv-x="1222" 
d="M453 1204l153 291h357l-234 -291h-276zM635 -29l-1 -1q-256 0 -415 153t-159 397q0 240 153 396t400 156q252 0 399 -153t147 -387q0 -58 -8 -108h-772q37 -180 261 -180q151 0 209 106l295 -86q-50 -114 -184 -203q-135 -90 -325 -90zM380 620h460q-8 74 -70 126
t-159 52q-96 0 -158 -53q-61 -52 -73 -125z" />
    <glyph glyph-name="ecircumflex" unicode="&#xea;" horiz-adv-x="1222" 
d="M616 1331l-90 -143h-286l223 307h307l223 -307h-286zM1161 532h-1q0 -58 -8 -108h-772q38 -180 261 -180q151 0 209 106l295 -86q-50 -114 -184 -203q-135 -90 -325 -90q-256 0 -415 153t-159 397q0 240 153 396t400 156q252 0 399 -154q147 -155 147 -387zM380 621h460
q-8 74 -70 126t-159 52q-96 0 -158 -53q-61 -52 -73 -125z" />
    <glyph glyph-name="edieresis" unicode="&#xeb;" horiz-adv-x="1222" 
d="M411 1149l-1 -1q-66 0 -112 46t-46 112t46 111q47 45 112 45q67 0 113 -46q47 -47 47 -109q0 -65 -47 -112q-46 -46 -112 -46zM816 1148l-2 -1q-66 0 -112 46t-46 112t47 111t112 45q67 0 113 -46q47 -47 47 -109q0 -65 -47 -112q-46 -46 -112 -46zM631 -31l-1 -1
q-256 0 -415 153t-159 397q0 240 153 396t400 156q252 0 399 -153t147 -387q0 -58 -8 -108h-772q37 -180 261 -180q151 0 209 106l295 -86q-50 -114 -184 -203q-135 -90 -325 -90zM376 618h460q-8 74 -70 126t-159 52q-96 0 -158 -53q-61 -52 -73 -125z" />
    <glyph glyph-name="igrave" unicode="&#xec;" horiz-adv-x="573" 
d="M451 1204h-277l-233 291h356zM123 0v1044h328v-1044h-328z" />
    <glyph glyph-name="iacute" unicode="&#xed;" horiz-adv-x="573" 
d="M123 1204l153 291h357l-234 -291h-276zM123 0v1044h328v-1044h-328z" />
    <glyph glyph-name="icircumflex" unicode="&#xee;" horiz-adv-x="573" 
d="M287 1331l-90 -143h-287l223 307h307l224 -307h-287zM123 0v1044h328v-1044h-328z" />
    <glyph glyph-name="idieresis" unicode="&#xef;" horiz-adv-x="573" 
d="M94 1149l-1 -1q-66 0 -112 46t-46 112t46 111t112 45q67 0 113 -46q47 -47 47 -109q0 -65 -47 -112q-46 -46 -112 -46zM476 1148l-2 -1q-66 0 -112 46t-46 112t47 111q46 45 112 45q67 0 113 -46q47 -47 47 -109q0 -65 -47 -112q-46 -46 -112 -46zM119 -2v1044h328v-1044
h-328z" />
    <glyph glyph-name="eth" unicode="&#xf0;" horiz-adv-x="1234" 
d="M891 1184l1 2q283 -310 283 -662q0 -246 -156 -399t-397 -153q-240 0 -400 147t-160 368q0 217 153 355t380 138q72 0 121 -16q-57 76 -123 145l-352 -88l-41 154l260 65q-111 96 -252 195h414q20 -17 138 -120l297 74l41 -154zM621 272q101 0 161 60t60 155
q0 92 -60 152t-161 60t-161 -60t-60 -153q0 -94 60 -154t161 -60z" />
    <glyph glyph-name="ntilde" unicode="&#xf1;" horiz-adv-x="1280" 
d="M543 1264v2q-43 0 -43 -88h-207q0 319 213 319q66 0 150 -48t104 -48q43 0 43 88h207q0 -319 -213 -321q-65 0 -151 48t-103 48zM760 1075v-2q203 0 305 -125q102 -124 102 -339v-608h-327v543q0 227 -187 227q-94 0 -148 -69t-54 -190v-510h-328v1044h328v-108
q119 137 309 137z" />
    <glyph glyph-name="ograve" unicode="&#xf2;" horiz-adv-x="1245" 
d="M786 1204h-276l-234 291h357zM622 -29v-1q-242 0 -402 158q-159 158 -159 393t159 393q160 158 402 158q244 0 402 -157q159 -157 159 -393t-159 -393q-160 -158 -402 -158zM622 265v-1q111 0 177 72t66 185q0 112 -66 184t-177 72t-177 -72t-66 -184t66 -184t177 -72z
" />
    <glyph glyph-name="oacute" unicode="&#xf3;" horiz-adv-x="1245" 
d="M459 1204l153 291h357l-234 -291h-276zM622 -29v-1q-242 0 -402 158q-159 158 -159 393t159 393q160 158 402 158q244 0 402 -157q159 -157 159 -393t-159 -393q-160 -158 -402 -158zM622 265v-1q111 0 177 72t66 185q0 112 -66 184t-177 72t-177 -72t-66 -184t66 -184
t177 -72z" />
    <glyph glyph-name="ocircumflex" unicode="&#xf4;" horiz-adv-x="1245" 
d="M623 1331l-91 -143h-286l223 307h307l223 -307h-286zM622 1073v-1q244 0 402 -157q159 -157 159 -393t-159 -393q-160 -158 -402 -158t-402 158q-159 157 -159 393t159 393q160 158 402 158zM622 265v-1q111 0 177 72t66 185q0 112 -66 184t-177 72t-177 -72t-66 -184
t66 -184t177 -72z" />
    <glyph glyph-name="otilde" unicode="&#xf5;" horiz-adv-x="1245" 
d="M768 1167v1q-66 0 -151 48q-86 48 -103 48q-43 0 -43 -88h-207q0 319 213 319q65 0 151 -48t103 -48q43 0 43 88h207q0 -320 -213 -320zM622 -28v-1q-242 0 -402 158q-159 157 -159 393t159 393q160 158 402 158q244 0 402 -157q159 -158 159 -393t-159 -393
q-160 -158 -402 -158zM622 266v-1q111 0 177 72t66 185q0 112 -66 184t-177 72t-177 -72t-66 -184t66 -184t177 -72z" />
    <glyph glyph-name="odieresis" unicode="&#xf6;" horiz-adv-x="1245" 
d="M417 1149v-1q-66 0 -112 46t-46 112t46 111q47 45 112 45q67 0 114 -46q48 -46 48 -109q0 -65 -48 -112q-47 -46 -114 -46zM823 1148l-1 -1q-66 0 -112 46t-46 112t46 111t112 45q67 0 113 -46q47 -47 47 -109q0 -65 -47 -112q-46 -46 -112 -46zM621 -31v-1
q-242 0 -402 158q-159 158 -159 393t159 393q160 158 402 158q244 0 402 -157q159 -157 159 -393t-159 -393q-160 -158 -402 -158zM621 263v-1q111 0 177 72t66 185q0 112 -66 184t-177 72t-177 -72t-66 -184t66 -184t177 -72z" />
    <glyph glyph-name="divide" unicode="&#xf7;" horiz-adv-x="1187" 
d="M593 948v-1q-63 0 -108 45t-45 109q0 59 45 102q46 44 108 44t108 -44q45 -43 45 -102q0 -63 -45 -108t-108 -45zM112 589v256h962v-256h-962zM592 185v-1q-63 0 -108 45t-45 109q0 58 45 102q46 44 108 44t108 -44q45 -44 45 -102q0 -63 -45 -108t-108 -45z" />
    <glyph glyph-name="oslash" unicode="&#xf8;" horiz-adv-x="1245" 
d="M1004 936v-2q180 -160 180 -414q0 -236 -159 -393q-158 -157 -402 -157q-136 0 -254 56l-41 -58h-185l99 140q-179 160 -181 414q0 236 159 393q160 158 403 158q138 0 254 -55l41 57h184zM379 520h-1q0 -91 43 -155l280 399q-38 12 -79 12q-111 0 -177 -72t-66 -184z
M622 264h-1q111 0 177 72t66 184q0 92 -43 156l-280 -399q36 -13 81 -13z" />
    <glyph glyph-name="ugrave" unicode="&#xf9;" horiz-adv-x="1280" 
d="M803 1204h-277l-233 291h356zM829 1044h328v-1044h-328v109q-119 -137 -309 -138q-203 0 -305 125q-102 124 -102 339v608h327v-542q0 -227 187 -228q94 0 148 70q54 71 54 192v509z" />
    <glyph glyph-name="uacute" unicode="&#xfa;" horiz-adv-x="1280" 
d="M985 1495l-233 -291h-277l154 291h356zM829 1044h328v-1044h-328v109q-119 -137 -309 -138q-203 0 -305 125q-102 124 -102 339v608h327v-542q0 -227 187 -228q94 0 148 70q54 71 54 192v509z" />
    <glyph glyph-name="ucircumflex" unicode="&#xfb;" horiz-adv-x="1280" 
d="M639 1331l-90 -143h-287l223 307h308l223 -307h-287zM829 1044h328v-1044h-328v109q-119 -137 -309 -138q-203 0 -305 125q-102 124 -102 339v608h327v-542q0 -227 187 -228q94 0 148 70q54 71 54 192v509z" />
    <glyph glyph-name="udieresis" unicode="&#xfc;" horiz-adv-x="1280" 
d="M434 1149l-2 -1q-66 0 -112 46t-46 112t47 111q46 45 112 45q67 0 113 -46q47 -47 47 -109q0 -65 -47 -112q-46 -46 -112 -46zM837 1148l-1 -1q-66 0 -112 46t-46 112t46 111t112 45q67 0 113 -46q47 -47 47 -109q0 -65 -47 -112q-46 -46 -112 -46zM825 1042h328v-1044
h-328v109q-119 -137 -309 -138q-203 0 -305 125q-102 124 -102 339v608h327v-542q0 -227 187 -228q94 0 148 70q54 71 54 192v509z" />
    <glyph glyph-name="yacute" unicode="&#xfd;" horiz-adv-x="1236" 
d="M973 1495l-234 -291h-276l153 291h357zM887 1044h350l-621 -1474h-333l186 455l14 2l-14 -2l-469 1019h358l273 -636z" />
    <glyph glyph-name="thorn" unicode="&#xfe;" horiz-adv-x="1320" 
d="M752 1073l-1 -1q213 0 360 -157t147 -393t-147 -393q-147 -158 -360 -158q-181 0 -300 125v-526h-328v1925h328v-547q116 125 301 125zM691 261l-1 -1q106 0 175 73t69 189q0 115 -69 187t-175 72q-110 0 -180 -72q-70 -71 -70 -187t71 -189q71 -72 180 -72z" />
    <glyph glyph-name="ydieresis" unicode="&#xff;" horiz-adv-x="1236" 
d="M421 1149v-1q-66 0 -112 46t-46 112t46 111t112 45q67 0 114 -46q48 -46 48 -109q0 -65 -48 -112q-47 -46 -114 -46zM827 1148l-1 -1q-66 0 -112 46t-46 112t46 111t112 45q67 0 113 -46q47 -47 47 -109q0 -65 -47 -112q-46 -46 -112 -46zM885 1042h350l-621 -1474h-333
l186 455l14 2l-14 -2l-469 1019h358l273 -636z" />
    <glyph glyph-name="Amacron" unicode="&#x100;" horiz-adv-x="1507" 
d="M1061 1819v-226h-615v226h615zM1157 0l-100 274h-606l-101 -274h-350l530 1434h447l530 -1434h-350zM559 571h389l-194 537z" />
    <glyph glyph-name="amacron" unicode="&#x101;" horiz-adv-x="1320" 
d="M336 1204v226h614v-226h-614zM569 -29h-1q-213 0 -360 158q-147 157 -147 393t147 393q147 158 360 158q185 0 301 -125v96h328v-1044h-328v96q-119 -125 -300 -125zM628 262l-1 -1q110 0 180 73q71 74 71 189q0 114 -71 187q-71 72 -179 72q-106 0 -175 -72t-69 -187
q0 -117 69 -189t175 -72z" />
    <glyph glyph-name="Abreve" unicode="&#x102;" horiz-adv-x="1507" 
d="M754 1550l-2 -1q-176 0 -267 90t-91 227h248q0 -121 111 -121t111 121h248q0 -136 -91 -226t-267 -90zM1155 -1l-100 274h-606l-101 -274h-350l530 1434h447l530 -1434h-350zM557 570h389l-194 537z" />
    <glyph glyph-name="abreve" unicode="&#x103;" horiz-adv-x="1320" 
d="M643 1161q-175 0 -267 89q-91 88 -91 227h247q0 -121 111 -121t111 121h247q0 -136 -91 -226q-92 -90 -267 -90zM569 -29h-1q-213 0 -360 158q-147 157 -147 393t147 393q147 158 360 158q185 0 301 -125v96h328v-1044h-328v96q-119 -125 -300 -125zM628 262l-1 -1
q110 0 180 73q71 74 71 189q0 114 -71 187q-71 72 -179 72q-106 0 -175 -72t-69 -187q0 -117 69 -189t175 -72z" />
    <glyph glyph-name="Aogonek" unicode="&#x104;" horiz-adv-x="1507" 
d="M1540 -190l54 -167q-32 -41 -96 -71q-65 -30 -142 -30q-98 0 -164 57t-66 149q0 134 150 252h-119l-100 274h-606l-101 -274h-350l530 1434h447l530 -1434q-61 -45 -102 -102q-41 -58 -41 -91q0 -57 57 -57q73 2 119 60zM560 572h389l-194 537z" />
    <glyph glyph-name="aogonek" unicode="&#x105;" horiz-adv-x="1320" 
d="M1231 -190l52 -167q-32 -41 -96 -71q-65 -30 -141 -30q-98 0 -164 57t-66 149q0 134 150 252h-97v96q-119 -125 -300 -125q-213 0 -360 158q-147 157 -147 393t147 393q147 158 360 158q185 0 301 -125v96h328v-1044q-62 -45 -102 -102q-41 -58 -41 -91q0 -57 57 -57
q73 2 119 60zM628 263l-1 -1q110 0 180 73q71 74 71 189q0 114 -71 187q-71 72 -179 72q-106 0 -175 -72t-69 -187q0 -117 69 -189t175 -72z" />
    <glyph glyph-name="Cacute" unicode="&#x106;" horiz-adv-x="1583" 
d="M657 1593l154 291h356l-233 -291h-277zM825 -29h-3q-325 0 -541 213t-216 533q0 316 215 531q214 214 536 214q286 0 471 -145q187 -146 233 -336l-332 -82q-28 97 -129 171q-100 73 -240 73q-182 0 -293 -123t-111 -301q0 -175 113 -302q112 -126 293 -126q140 0 240 71
t128 168l332 -84q-46 -187 -231 -331q-184 -144 -465 -144z" />
    <glyph glyph-name="cacute" unicode="&#x107;" horiz-adv-x="1189" 
d="M453 1204l153 291h357l-234 -291h-276zM621 -29l-1 -4q-241 0 -401 158q-159 157 -159 393q0 235 158 393t396 158q209 0 350 -108t174 -245l-303 -86q-13 60 -74 106q-60 45 -144 45q-106 0 -172 -75t-66 -183t66 -186t172 -78q83 0 144 44q60 43 75 104l303 -86
q-33 -137 -172 -243q-140 -107 -346 -107z" />
    <glyph glyph-name="Cdotaccent" unicode="&#x10a;" horiz-adv-x="1583" 
d="M821 1550h-1q-74 0 -126 51t-52 125q0 72 53 123t126 51t126 -51q52 -51 52 -123q0 -74 -52 -125q-53 -51 -126 -51zM823 -29h-3q-325 0 -541 213t-216 533q0 316 215 531q214 214 536 214q286 0 471 -145q187 -146 233 -336l-332 -82q-28 97 -129 171q-100 73 -240 73
q-182 0 -293 -123t-111 -301q0 -175 113 -302q112 -126 293 -126q140 0 240 71t128 168l332 -84q-46 -187 -231 -331q-184 -144 -465 -144z" />
    <glyph glyph-name="cdotaccent" unicode="&#x10b;" horiz-adv-x="1189" 
d="M616 1161h-2q-74 0 -126 51t-52 125q0 72 53 123t126 51t126 -51t53 -123q0 -74 -52 -125t-126 -51zM618 -29l-1 -4q-241 0 -401 158q-159 157 -159 393q0 235 158 393t396 158q209 0 350 -108t174 -245l-303 -86q-13 60 -74 106q-60 45 -144 45q-106 0 -172 -75
t-66 -183t66 -186t172 -78q83 0 144 44q60 43 75 104l303 -86q-33 -137 -172 -243q-140 -107 -346 -107z" />
    <glyph glyph-name="Ccaron" unicode="&#x10c;" horiz-adv-x="1583" 
d="M668 1577l-224 307h287l90 -143l90 143h287l-223 -307h-307zM821 291h-3q140 0 240 71t128 168l332 -84q-46 -187 -231 -331t-465 -144q-325 0 -541 213t-216 533q0 316 215 531q214 214 536 214q286 0 471 -145q187 -146 233 -336l-332 -82q-28 97 -129 171
q-100 73 -240 73q-182 0 -293 -123t-111 -301q0 -175 113 -302q112 -126 293 -126z" />
    <glyph glyph-name="ccaron" unicode="&#x10d;" horiz-adv-x="1189" 
d="M463 1188l-223 307h286l90 -143l91 143h286l-223 -307h-307zM618 260l-2 -4q83 0 144 44q60 43 75 104l303 -86q-33 -137 -172 -243q-140 -107 -345 -107q-241 0 -401 158q-159 158 -159 393t158 393t396 158q209 0 350 -108t174 -245l-303 -86q-13 60 -74 106
q-60 45 -144 45q-106 0 -172 -75t-66 -183t66 -186t172 -78z" />
    <glyph glyph-name="Dcaron" unicode="&#x10e;" horiz-adv-x="1529" 
d="M563 1577l-223 307h287l90 -143l90 143h287l-224 -307h-307zM784 1434l-1 1q304 0 491 -199q188 -200 188 -519q0 -315 -186 -516t-492 -201h-661v1434h661zM775 306v-1q147 0 245 116t98 302q0 185 -97 295q-97 111 -246 111h-317v-823h317z" />
    <glyph glyph-name="dcaron" unicode="&#x10f;" horiz-adv-x="1601" 
d="M870 1495h327v-1495h-328v96q-119 -125 -300 -125q-213 0 -360 158q-147 157 -147 393t147 393q147 158 360 158q185 0 301 -125v547zM1328 1495h293l-68 -434h-251zM628 262l-1 -1q110 0 180 73q71 74 71 189q0 114 -71 187q-71 72 -179 72q-106 0 -175 -72t-69 -187
q0 -117 69 -189t175 -72z" />
    <glyph glyph-name="Dcroat" unicode="&#x110;" horiz-adv-x="1591" 
d="M846 1434l-2 1q304 0 491 -199q188 -200 188 -519q0 -315 -186 -516t-491 -201h-662v563h-143v287h143v584h662zM836 306l-2 -1q147 0 245 116t98 302q0 185 -97 295q-98 111 -244 111h-318v-278h299v-287h-299v-258h318z" />
    <glyph glyph-name="dcroat" unicode="&#x111;" horiz-adv-x="1329" 
d="M1329 1341l-1 -184h-131v-1157h-328v96q-119 -125 -300 -125q-213 0 -360 158q-147 157 -147 393t147 393q147 158 360 158q185 0 301 -125v209h-299v184h299v154h328v-154h131zM628 262l-1 -1q110 0 180 73q71 74 71 189q0 114 -71 187q-71 72 -179 72q-106 0 -175 -72
t-69 -187q0 -117 69 -189t175 -72z" />
    <glyph glyph-name="Emacron" unicode="&#x112;" horiz-adv-x="1284" 
d="M965 1819v-226h-615v226h615zM1202 1126h-747v-249h643v-297h-643v-273h745v-307h-1077v1434h1079v-308z" />
    <glyph glyph-name="emacron" unicode="&#x113;" horiz-adv-x="1222" 
d="M309 1204v226h615v-226h-615zM635 -29l-1 -1q-256 0 -415 153t-159 397q0 240 153 396t400 156q252 0 399 -153t147 -387q0 -58 -8 -108h-772q37 -180 261 -180q151 0 209 106l295 -86q-50 -114 -184 -203q-135 -90 -325 -90zM380 620h460q-8 74 -70 126t-159 52
q-96 0 -158 -53q-61 -52 -73 -125z" />
    <glyph glyph-name="Edotaccent" unicode="&#x116;" horiz-adv-x="1284" 
d="M657 1550h-2q-73 0 -126 51q-52 51 -52 125q0 72 53 123q52 51 126 51t126 -51q53 -51 53 -123q0 -74 -52 -125q-53 -51 -126 -51zM1199 1126h-747v-249h643v-297h-643v-273h745v-307h-1077v1434h1079v-308z" />
    <glyph glyph-name="edotaccent" unicode="&#x117;" horiz-adv-x="1222" 
d="M616 1161h-2q-74 0 -126 51t-52 125q0 72 53 123t126 51t126 -51t53 -123q0 -74 -52 -125t-126 -51zM632 -29l-1 -1q-256 0 -415 153t-159 397q0 240 153 396t400 156q252 0 399 -153t147 -387q0 -58 -8 -108h-772q38 -180 261 -180q151 0 209 106l295 -86
q-50 -114 -184 -203q-135 -90 -325 -90zM377 620h460q-8 74 -70 126t-159 52q-96 0 -158 -53q-61 -52 -73 -125z" />
    <glyph glyph-name="Eogonek" unicode="&#x118;" horiz-adv-x="1284" 
d="M1233 -190l53 -167q-32 -41 -96 -71t-141 -30q-98 0 -164 57t-66 149q0 134 150 252h-846v1434h1079v-308h-747v-249h643v-297h-643v-273h745v-307q-62 -45 -102 -102q-41 -58 -41 -91q0 -57 57 -57q73 2 119 60z" />
    <glyph glyph-name="eogonek" unicode="&#x119;" horiz-adv-x="1222" 
d="M1161 532l-1 2q0 -58 -8 -108h-772q38 -180 261 -180q151 0 209 106l295 -86q-51 -115 -172 -196q-83 -62 -136 -135q-52 -71 -52 -121q0 -62 58 -63q73 0 119 60l53 -168q-32 -41 -96 -71q-65 -30 -142 -30q-97 0 -163 57t-66 149q0 123 115 223h-27q-256 0 -415 153
t-159 397q0 240 153 396t400 156q252 0 399 -154q147 -155 147 -387zM380 623h460q-8 74 -70 126t-159 52q-96 0 -158 -53q-61 -52 -73 -125z" />
    <glyph glyph-name="Ecaron" unicode="&#x11a;" horiz-adv-x="1284" 
d="M504 1577l-223 307h286l90 -143l91 143h286l-223 -307h-307zM1202 1126h-747v-249h643v-297h-643v-273h745v-307h-1077v1434h1079v-308z" />
    <glyph glyph-name="ecaron" unicode="&#x11b;" horiz-adv-x="1222" 
d="M463 1188l-223 307h286l90 -143l91 143h286l-223 -307h-307zM1161 532h-1q0 -58 -8 -108h-772q38 -180 261 -180q151 0 209 106l295 -86q-50 -114 -184 -203q-135 -90 -325 -90q-256 0 -415 153t-159 397q0 240 153 396t400 156q252 0 399 -154q147 -155 147 -387z
M380 621h460q-8 74 -70 126t-159 52q-96 0 -158 -53q-61 -52 -73 -125z" />
    <glyph glyph-name="Gbreve" unicode="&#x11e;" horiz-adv-x="1636" 
d="M829 1550v-1q-177 0 -268 90t-91 227h248q0 -121 111 -121t111 121h248q0 -136 -91 -226t-268 -90zM1568 814l-2 -169q0 -295 -201 -484t-528 -189q-335 0 -553 214q-219 214 -219 532t217 532t538 214q261 0 443 -127q183 -127 255 -318l-316 -90q-113 215 -378 215
q-181 0 -298 -123t-117 -301t120 -306q120 -127 335 -127q145 0 235 69q89 68 112 167l-376 -2v293h733z" />
    <glyph glyph-name="gbreve" unicode="&#x11f;" horiz-adv-x="1310" 
d="M645 1161h-2q-175 0 -267 89q-91 88 -91 227h248q0 -121 111 -121t111 121h248q0 -136 -91 -226q-92 -90 -267 -90zM858 1044l328 -2v-1005q0 -221 -150 -359t-400 -138q-356 0 -506 273l283 102q70 -109 231 -109q104 0 158 63t54 167v100q-116 -125 -289 -125
q-221 0 -365 153t-144 379q0 239 144 384q144 146 367 146q173 0 289 -125v96zM626 303h-1q108 0 174 66t66 172t-66 172t-174 66q-109 0 -176 -66t-67 -172t68 -172t176 -66z" />
    <glyph glyph-name="Gdotaccent" unicode="&#x120;" horiz-adv-x="1636" 
d="M829 1550h-2q-73 0 -126 51q-52 51 -52 125q0 72 53 123q52 51 126 51t126 -51q53 -51 53 -123q0 -74 -52 -125q-53 -51 -126 -51zM1566 815l-2 -169q0 -295 -201 -484t-528 -189q-335 0 -553 214q-219 214 -219 532t217 532t538 214q261 0 443 -127q183 -128 255 -318
l-316 -90q-113 215 -378 215q-181 0 -298 -123t-117 -301q0 -179 120 -306t335 -127q145 0 235 69q89 68 112 167l-376 -2v293h733z" />
    <glyph glyph-name="gdotaccent" unicode="&#x121;" horiz-adv-x="1310" 
d="M645 1161q-73 0 -126 51q-52 51 -52 125q0 72 52 123q53 51 126 51t126 -51q52 -51 52 -123q0 -74 -52 -125q-53 -51 -126 -51zM860 1044l328 -2v-1005q0 -221 -150 -359t-400 -138q-356 0 -506 273l283 102q70 -109 231 -109q104 0 158 63t54 167v100
q-116 -125 -289 -125q-221 0 -365 153t-144 379q0 239 144 384q144 146 367 146q173 0 289 -125v96zM628 303h-1q108 0 174 66t66 172t-66 172t-174 66q-109 0 -176 -66t-67 -172t68 -172t176 -66z" />
    <glyph glyph-name="uni0122" unicode="&#x122;" horiz-adv-x="1636" 
d="M1569 815l-2 -169q0 -295 -201 -484t-528 -189q-335 0 -553 214q-219 214 -219 532t217 532t538 214q261 0 443 -127q183 -128 255 -318l-316 -90q-113 215 -378 215q-181 0 -298 -123t-117 -301q0 -179 120 -306t335 -127q145 0 235 69q89 68 112 167l-376 -2v293h733z
M670 -552l26 430h293l-67 -430h-252z" />
    <glyph glyph-name="uni0123" unicode="&#x123;" horiz-adv-x="1310" 
d="M815 1647l-27 -430h-292l67 430h252zM860 1044l328 -2v-1005q0 -221 -150 -359t-400 -138q-356 0 -506 273l283 102q70 -109 231 -109q104 0 158 63t54 167v100q-116 -125 -289 -125q-221 0 -365 153t-144 379q0 239 144 384q144 146 367 146q173 0 289 -125v96zM628 303
h-1q108 0 174 66t66 172t-66 172t-174 66q-109 0 -176 -66t-67 -172t68 -172t176 -66z" />
    <glyph glyph-name="Hbar" unicode="&#x126;" horiz-adv-x="1556" 
d="M1536 1257v-204h-133v-1053h-340v575h-565v-575h-340v1053h-138v204h138v177h340v-177h565v177h340v-177h133zM1063 883v170h-565v-170h565z" />
    <glyph glyph-name="hbar" unicode="&#x127;" horiz-adv-x="1288" 
d="M768 1073v-2q203 0 305 -125q102 -124 102 -339v-608h-328v543q0 227 -186 227q-94 0 -148 -69t-54 -190v-510h-328v1157h-131v184h131v154h328v-154h299v-184h-299v-221q119 137 309 137z" />
    <glyph glyph-name="Imacron" unicode="&#x12a;" horiz-adv-x="589" 
d="M-12 1593v226h614v-226h-614zM123 0v1434h344v-1434h-344z" />
    <glyph glyph-name="imacron" unicode="&#x12b;" horiz-adv-x="573" 
d="M-20 1204v226h614v-226h-614zM123 0v1044h328v-1044h-328z" />
    <glyph glyph-name="Iogonek" unicode="&#x12e;" horiz-adv-x="589" 
d="M500 -190l53 -167q-32 -41 -96 -71q-65 -30 -142 -30q-97 0 -163 57t-66 149q0 134 150 252h-113v1434h344v-1434q-61 -45 -102 -102q-41 -58 -41 -91q0 -57 57 -57q73 2 119 60z" />
    <glyph glyph-name="iogonek" unicode="&#x12f;" horiz-adv-x="573" 
d="M286 1161h-1q-73 0 -126 51q-52 51 -52 125q0 72 52 123q53 51 126 51t126 -51t53 -123q0 -74 -52 -125t-126 -51zM481 -190l56 -167q-32 -41 -96 -71q-65 -30 -142 -30q-97 0 -163 57t-66 149q0 133 149 252h-96v1044h328v-1044q-60 -44 -103 -102q-42 -57 -42 -91
q0 -57 58 -57q70 2 117 60z" />
    <glyph glyph-name="Idotaccent" unicode="&#x130;" horiz-adv-x="589" 
d="M295 1550q-73 0 -126 51q-52 51 -52 125q0 72 52 123q53 51 126 51t126 -51q52 -51 52 -123q0 -74 -52 -125q-53 -51 -126 -51zM123 0v1434h344v-1434h-344z" />
    <glyph glyph-name="dotlessi" unicode="&#x131;" horiz-adv-x="573" 
d="M123 0v1044h328v-1044h-328z" />
    <glyph glyph-name="uni0136" unicode="&#x136;" horiz-adv-x="1464" 
d="M864 815l590 -815h-412l-401 563l-178 -201v-362h-340v1434h340v-623l520 623h430zM547 -553l26 430h293l-67 -430h-252z" />
    <glyph glyph-name="uni0137" unicode="&#x137;" horiz-adv-x="1175" 
d="M754 598l422 -598h-369l-256 362l-100 -114v-248h-328v1495h328v-833l313 382h377zM451 -553l26 430h293l-68 -430h-251z" />
    <glyph glyph-name="Lacute" unicode="&#x139;" horiz-adv-x="1177" 
d="M664 1884l-234 -291h-276l153 291h357zM463 311h674v-311h-1014v1434h340v-1123z" />
    <glyph glyph-name="lacute" unicode="&#x13a;" horiz-adv-x="573" 
d="M123 1655l153 291h357l-234 -291h-276zM123 0v1495h328v-1495h-328z" />
    <glyph glyph-name="uni013B" unicode="&#x13b;" horiz-adv-x="1177" 
d="M463 311h674v-311h-1014v1434h340v-1123zM455 -553l26 430h293l-67 -430h-252z" />
    <glyph glyph-name="uni013C" unicode="&#x13c;" horiz-adv-x="573" 
d="M123 0v1495h328v-1495h-328zM113 -553l26 430h293l-67 -430h-252z" />
    <glyph glyph-name="Lcaron" unicode="&#x13d;" horiz-adv-x="1177" 
d="M463 1434v-1123h674v-311h-1014v1434h340zM1137 1434l-66 -373h-256l21 373h301z" />
    <glyph glyph-name="lcaron" unicode="&#x13e;" horiz-adv-x="858" 
d="M123 0v1495h328v-1495h-328zM559 1061l27 434h293l-68 -434h-252z" />
    <glyph glyph-name="Lslash" unicode="&#x141;" horiz-adv-x="1177" 
d="M463 311h674v-311h-1014v477l-92 -39v287l92 39v670h340v-523l383 166v-286l-383 -166v-314z" />
    <glyph glyph-name="lslash" unicode="&#x142;" horiz-adv-x="688" 
d="M668 1096v-287l-160 -76v-723h-328v572l-160 -76v287l160 75v637h328v-485z" />
    <glyph glyph-name="Nacute" unicode="&#x143;" horiz-adv-x="1507" 
d="M1100 1884l-234 -291h-276l153 291h357zM1044 1434h340v-1434h-276l-645 821v-821h-340v1434h276l645 -822v822z" />
    <glyph glyph-name="nacute" unicode="&#x144;" horiz-adv-x="1280" 
d="M997 1495l-233 -291h-277l154 291h356zM760 1073v-2q203 0 305 -125q102 -124 102 -339v-608h-327v543q0 227 -187 227q-94 0 -148 -69t-54 -190v-510h-328v1044h328v-108q119 137 309 137z" />
    <glyph glyph-name="uni0145" unicode="&#x145;" horiz-adv-x="1507" 
d="M1044 1434h340v-1434h-276l-645 821v-821h-340v1434h276l645 -822v822zM594 -553l27 430h292l-67 -430h-252z" />
    <glyph glyph-name="uni0146" unicode="&#x146;" horiz-adv-x="1280" 
d="M760 1073v-2q203 0 305 -125q102 -124 102 -339v-608h-327v543q0 227 -187 227q-94 0 -148 -69t-54 -190v-510h-328v1044h328v-108q119 137 309 137zM481 -555l27 430h293l-68 -430h-252z" />
    <glyph glyph-name="Ncaron" unicode="&#x147;" horiz-adv-x="1507" 
d="M600 1577l-223 307h287l90 -143l90 143h286l-223 -307h-307zM1044 1434h340v-1434h-276l-645 821v-821h-340v1434h276l645 -822v822z" />
    <glyph glyph-name="ncaron" unicode="&#x148;" horiz-adv-x="1280" 
d="M498 1188l-224 307h287l90 -143l90 143h287l-223 -307h-307zM760 1073v-2q203 0 305 -125q102 -124 102 -339v-608h-327v543q0 227 -187 227q-94 0 -148 -69t-54 -190v-510h-328v1044h328v-108q119 137 309 137z" />
    <glyph glyph-name="Eng" unicode="&#x14a;" horiz-adv-x="1507" 
d="M1044 1434l339 1v-1434q0 -206 -95 -321q-94 -114 -290 -114q-102 0 -206 45l71 250q37 -19 93 -21q90 0 91 133v105l-584 743v-821h-340v1434h276l645 -822v822z" />
    <glyph glyph-name="eng" unicode="&#x14b;" horiz-adv-x="1280" 
d="M760 1073l-1 -2q203 0 305 -125q102 -124 102 -339v-608q0 -218 -95 -340q-94 -121 -290 -121q-102 0 -207 47l72 250q38 -20 81 -20q113 0 113 153v574q0 227 -187 227q-94 0 -148 -69t-54 -190v-510h-328v1044h328v-108q119 137 309 137z" />
    <glyph glyph-name="Omacron" unicode="&#x14c;" horiz-adv-x="1654" 
d="M520 1593v226h615v-226h-615zM827 -29v-2q-327 0 -543 213t-216 533t216 533t543 213t543 -213t216 -532t-216 -532t-543 -213zM827 283q186 0 300 123t114 309t-114 309t-300 123t-300 -123t-114 -309t114 -309t300 -123z" />
    <glyph glyph-name="omacron" unicode="&#x14d;" horiz-adv-x="1245" 
d="M315 1204v226h615v-226h-615zM622 -29v-1q-242 0 -402 158q-159 158 -159 393t159 393q160 158 402 158q244 0 402 -157q159 -157 159 -393t-159 -393q-160 -158 -402 -158zM622 265v-1q111 0 177 72t66 185q0 112 -66 184t-177 72t-177 -72t-66 -184t66 -184t177 -72z
" />
    <glyph glyph-name="Ohungarumlaut" unicode="&#x150;" horiz-adv-x="1654" 
d="M479 1593l168 291h293l-178 -291h-283zM868 1593l185 291h293l-195 -291h-283zM827 -29v-2q-327 0 -543 213t-216 533t216 533t543 213t543 -213t216 -532t-216 -532t-543 -213zM827 283q186 0 300 123t114 309t-114 309t-300 123t-300 -123t-114 -309t114 -309t300 -123
z" />
    <glyph glyph-name="ohungarumlaut" unicode="&#x151;" horiz-adv-x="1245" 
d="M274 1204l168 291h293l-178 -291h-283zM664 1204l184 291h293l-195 -291h-282zM622 -29v-1q-242 0 -402 158q-159 158 -159 393t159 393q160 158 402 158q244 0 402 -157q159 -157 159 -393t-159 -393q-160 -158 -402 -158zM622 265v-1q111 0 177 72t66 185
q0 112 -66 184t-177 72t-177 -72t-66 -184t66 -184t177 -72z" />
    <glyph glyph-name="OE" unicode="&#x152;" horiz-adv-x="2064" 
d="M1982 1126h-658v-249h555v-297h-555v-273h657v-307h-1218q-307 0 -501 201q-193 200 -193 515q0 320 192 519t501 199h1220v-308zM763 307h225v819h-225q-152 0 -251 -109t-99 -294t100 -300q101 -116 250 -116z" />
    <glyph glyph-name="oe" unicode="&#x153;" horiz-adv-x="2027" 
d="M1966 532h4q0 -61 -10 -120h-764q20 -78 87 -126t163 -48q122 0 184 86l293 -88q-49 -106 -180 -186q-130 -79 -297 -79q-269 0 -423 181q-151 -179 -399 -181q-243 0 -403 158q-159 157 -159 393t159 393q160 158 403 158q248 0 399 -180q150 180 401 180
q254 0 398 -154q144 -155 144 -387zM1190 621l465 -1q-11 78 -70 129q-60 51 -156 51t-161 -53q-64 -53 -78 -126zM626 265l-2 -1q108 0 176 74t68 182q0 109 -67 182q-68 74 -176 74q-109 0 -176 -73t-67 -182q0 -108 68 -182t176 -74z" />
    <glyph glyph-name="Racute" unicode="&#x154;" horiz-adv-x="1441" 
d="M1022 1884l-234 -291h-276l154 291h356zM1010 0l-306 471h-246v-471h-336v1434h717q227 0 368 -147t141 -337q0 -141 -77 -260t-216 -176l346 -514h-391zM458 1130l-1 -361h356q88 0 146 53q57 52 57 129q0 74 -55 126q-56 53 -133 53h-370z" />
    <glyph glyph-name="racute" unicode="&#x155;" horiz-adv-x="819" 
d="M774 1495l-233 -291h-277l154 291h356zM451 903l-1 2q47 86 131 128q83 42 196 28v-307q-168 28 -247 -48t-79 -270v-436h-328v1044h328v-141z" />
    <glyph glyph-name="uni0156" unicode="&#x156;" horiz-adv-x="1441" 
d="M1055 514l345 -514h-391l-305 471h-246v-471h-336v1434h717q227 0 368 -147t141 -337q0 -141 -77 -260t-216 -176zM458 1130l-1 -361h356q88 0 146 53q57 52 57 129q0 74 -55 126q-56 53 -133 53h-370zM539 -552l26 430h293l-67 -430h-252z" />
    <glyph glyph-name="uni0157" unicode="&#x157;" horiz-adv-x="819" 
d="M451 903l-1 2q47 86 131 128q83 42 196 28v-307q-168 28 -247 -48t-79 -270v-436h-328v1044h328v-141zM114 -551l26 430h293l-67 -430h-252z" />
    <glyph glyph-name="Rcaron" unicode="&#x158;" horiz-adv-x="1441" 
d="M522 1577l-223 307h287l90 -143l90 143h287l-224 -307h-307zM1010 0l-306 471h-246v-471h-336v1434h717q227 0 368 -147t141 -337q0 -141 -77 -260t-216 -176l346 -514h-391zM458 1130l-1 -361h356q88 0 146 53q57 52 57 129q0 74 -55 126q-56 53 -133 53h-370z" />
    <glyph glyph-name="rcaron" unicode="&#x159;" horiz-adv-x="819" 
d="M274 1188l-223 307h287l90 -143l90 143h287l-223 -307h-308zM451 903l-1 2q47 86 131 128q83 42 196 28v-307q-168 28 -247 -48t-79 -270v-436h-328v1044h328v-141z" />
    <glyph glyph-name="Sacute" unicode="&#x15a;" horiz-adv-x="1374" 
d="M518 1593l154 291h356l-233 -291h-277zM725 -29l1 -6q-254 0 -429 126t-243 309l324 100q43 -106 139 -172t231 -66q101 0 162 40q62 41 62 96q0 89 -154 138l-369 114q-149 46 -240 146q-90 98 -88 234q-1 178 150 303q152 125 381 125q228 0 401 -109
q175 -110 233 -267l-313 -92q-43 76 -129 124t-189 48q-85 0 -138 -33q-52 -33 -52 -84q0 -73 96 -102l361 -115q188 -59 290 -147q102 -89 102 -255q0 -195 -163 -325t-426 -130z" />
    <glyph glyph-name="sacute" unicode="&#x15b;" horiz-adv-x="1073" 
d="M358 1204l154 291h356l-233 -291h-277zM547 -29l2 -3q-193 0 -337 96q-145 97 -185 229l292 86q27 -68 90 -110t152 -42q58 0 95 23q36 22 36 54q0 51 -98 80l-250 74q-264 80 -264 291q0 137 128 230t306 93q168 0 295 -72t178 -195l-287 -82q-71 98 -189 98
q-45 0 -78 -18t-33 -46q0 -41 60 -62l241 -67q69 -19 120 -41q50 -22 96 -55q48 -35 72 -88q24 -54 24 -126q0 -152 -130 -249q-131 -98 -336 -98z" />
    <glyph glyph-name="Scedilla" unicode="&#x15e;" horiz-adv-x="1374" 
d="M1313 426l1 -7q0 -174 -130 -298t-348 -151l-29 -86q59 -10 99 -57q40 -46 40 -103q0 -88 -67 -139t-180 -51q-129 0 -221 72l35 121q56 -39 133 -38q78 1 78 54q0 45 -57 62t-110 0l53 168q-209 27 -353 147t-204 280l324 100q43 -106 139 -172t231 -66q101 0 162 40
q62 41 62 96q0 89 -154 138l-369 114q-149 46 -240 146q-90 98 -88 234q-2 178 150 303t381 125q228 0 401 -109q175 -110 233 -267l-313 -92q-43 76 -129 124q-85 48 -189 48q-86 0 -138 -33t-52 -84q0 -73 96 -102l361 -115q188 -59 290 -147q102 -89 102 -255z" />
    <glyph glyph-name="scedilla" unicode="&#x15f;" horiz-adv-x="1073" 
d="M1012 319l-2 1q0 -128 -93 -219q-93 -92 -250 -120l-29 -91q58 -10 99 -57q40 -46 40 -103q0 -88 -67 -139q-68 -51 -180 -51q-130 0 -221 72l35 121q56 -39 133 -38q78 1 78 54q0 45 -57 62t-110 0l53 168q-155 25 -268 114t-147 201l292 86q27 -68 90 -110t152 -42
q58 0 95 23q36 23 36 54q0 51 -98 80l-250 74q-264 79 -264 291q0 137 128 230q127 93 306 93q167 0 295 -72q127 -72 178 -195l-287 -82q-71 98 -189 98q-45 0 -78 -18t-33 -46q0 -41 60 -62l241 -67q69 -19 120 -41q50 -22 96 -55q48 -35 72 -88q24 -54 24 -126z" />
    <glyph glyph-name="Scaron" unicode="&#x160;" horiz-adv-x="1374" 
d="M528 1577l-223 307h287l90 -143l90 143h287l-223 -307h-308zM920 829l1 -6q188 -59 290 -147t102 -255q0 -195 -163 -325t-426 -130q-254 0 -429 126t-243 309l324 100q43 -106 139 -172t231 -66q101 0 162 40q62 41 62 96q0 89 -154 138l-369 114q-149 46 -240 146
q-90 98 -88 234q-1 179 150 303q152 125 381 125q228 0 401 -109q175 -110 233 -267l-313 -92q-43 76 -129 124t-189 48q-85 0 -138 -33q-52 -33 -52 -84q0 -74 96 -102z" />
    <glyph glyph-name="scaron" unicode="&#x161;" horiz-adv-x="1073" 
d="M369 1188l-224 307h287l90 -143l90 143h287l-223 -307h-307zM700 629l2 -3q69 -19 120 -41q50 -22 96 -55q48 -35 72 -88q24 -54 24 -126q0 -152 -130 -249q-131 -98 -336 -98q-193 0 -337 96q-145 97 -185 229l292 86q27 -68 90 -110t152 -42q58 0 95 23q36 23 36 54
q0 51 -98 80l-250 74q-264 79 -264 291q0 137 128 230q127 93 306 93q167 0 295 -72q127 -72 178 -195l-287 -82q-71 98 -189 98q-45 0 -78 -18t-33 -46q0 -41 60 -62z" />
    <glyph glyph-name="uni0162" unicode="&#x162;" horiz-adv-x="1314" 
d="M827 1126l-2 -1126l-34 -109q59 -11 99 -57t40 -103q0 -88 -67 -139t-180 -51q-129 0 -221 72l35 121q56 -39 133 -38q78 2 78 54q0 46 -57 62q-57 17 -110 0l59 188h-113v1126h-456v308h1253v-308h-457z" />
    <glyph glyph-name="uni0163" unicode="&#x163;" horiz-adv-x="847" 
d="M614 -109q58 -11 99 -57q41 -47 41 -103q0 -88 -68 -139t-180 -51q-130 0 -221 72l34 121q56 -39 133 -38q78 2 78 54q0 46 -57 62t-111 0l60 188q-240 66 -240 377v381h-162v286h162v328h328v-328h281v-286h-281v-381q0 -109 108 -109q58 0 111 27l78 -260
q-83 -33 -162 -45z" />
    <glyph glyph-name="Tcaron" unicode="&#x164;" horiz-adv-x="1314" 
d="M504 1577l-223 307h286l90 -143l91 143h286l-223 -307h-307zM1284 1434v-308h-457v-1126h-340v1126h-456v308h1253z" />
    <glyph glyph-name="tcaron" unicode="&#x165;" horiz-adv-x="907" 
d="M635 1495h293l-66 -373h-248zM618 268l1 -1q59 0 111 27l78 -260q-129 -51 -256 -51q-184 0 -277 105t-93 289v381h-162v286h162v328h328v-328h281v-286h-281v-381q-1 -109 108 -109z" />
    <glyph glyph-name="Tbar" unicode="&#x166;" horiz-adv-x="1314" 
d="M1284 1126h-457v-315h277v-266h-277v-545h-340v545h-284v266h284v315h-456v308h1253v-308z" />
    <glyph glyph-name="tbar" unicode="&#x167;" horiz-adv-x="854" 
d="M735 295l80 -261q-129 -51 -262 -51q-184 0 -277 105t-93 289v102h-147v205h147v135h-162v225h162v328h328v-328h287v-225h-287v-135h244v-205h-244v-102q0 -109 119 -109q58 0 105 27z" />
    <glyph glyph-name="Umacron" unicode="&#x16a;" horiz-adv-x="1499" 
d="M1057 1819v-226h-615v226h615zM1042 1434h342v-838q0 -283 -168 -454t-469 -171q-303 0 -470 171q-167 172 -167 454v838h344v-832q0 -142 75 -231q75 -88 219 -88t219 88q75 89 75 231v832z" />
    <glyph glyph-name="umacron" unicode="&#x16b;" horiz-adv-x="1280" 
d="M946 1430v-226h-614v226h614zM829 1044h328v-1044h-328v109q-119 -137 -309 -138q-203 0 -305 125q-102 124 -102 339v608h327v-542q0 -227 187 -228q94 0 148 70q54 71 54 192v509z" />
    <glyph glyph-name="Uring" unicode="&#x16e;" horiz-adv-x="1499" 
d="M749 1499l-2 -2q-113 0 -190 74q-76 73 -76 185q0 111 76 184q77 74 191 74q115 0 191 -73t76 -184t-76 -184q-77 -74 -190 -74zM747 1841v-1q-39 0 -63 -24t-24 -61q0 -39 24 -63t63 -24t64 24t25 63q0 38 -25 62q-26 24 -64 24zM1039 1431h342v-838q0 -283 -168 -454
t-469 -171q-303 0 -470 171q-167 172 -167 454v838h344v-832q0 -143 75 -231t219 -88t219 88t75 231v832z" />
    <glyph glyph-name="uring" unicode="&#x16f;" horiz-adv-x="1280" 
d="M639 1110l-2 -4q-114 0 -190 74q-75 74 -75 185t75 185q76 74 191 74q117 0 191 -73q75 -74 75 -184q0 -111 -75 -184q-74 -73 -190 -73zM637 1450v-1q-39 0 -63 -24t-24 -61q0 -39 24 -63t63 -24t63 24t24 63q0 38 -24 62t-63 24zM827 1039h328v-1044h-328v109
q-119 -136 -309 -138q-203 0 -305 125t-102 339v608h327v-542q0 -227 187 -228q94 0 148 70t54 192v509z" />
    <glyph glyph-name="Uhungarumlaut" unicode="&#x170;" horiz-adv-x="1499" 
d="M862 1884l-178 -291h-283l168 291h293zM1073 1593h-282l184 291h293zM1042 1434h342v-838q0 -283 -168 -454t-469 -171q-303 0 -470 171q-167 172 -167 454v838h344v-832q0 -142 75 -231q75 -88 219 -88t219 88q75 89 75 231v832z" />
    <glyph glyph-name="uhungarumlaut" unicode="&#x171;" horiz-adv-x="1280" 
d="M752 1495l-179 -291h-282l168 291h293zM963 1204h-283l184 291h293zM829 535v509h328v-1044h-328v109q-119 -137 -309 -138q-203 0 -305 125q-102 124 -102 339v608h327v-542q0 -227 187 -228q94 0 148 70q54 71 54 192z" />
    <glyph glyph-name="Uogonek" unicode="&#x172;" horiz-adv-x="1499" 
d="M1042 1434l343 -1v-838q0 -342 -233 -510q-82 -62 -135 -137q-52 -73 -52 -120q0 -57 57 -57q72 0 119 59l53 -168q-31 -40 -96 -70q-64 -30 -142 -30q-97 0 -163 57t-66 150q0 103 98 206q-44 -4 -78 -4q-303 0 -470 171q-167 172 -167 454v838h344v-832q0 -142 75 -231
q75 -88 219 -88t219 88q75 89 75 231v832z" />
    <glyph glyph-name="uogonek" unicode="&#x173;" horiz-adv-x="1280" 
d="M1190 -190l53 -167q-32 -41 -96 -71q-65 -30 -141 -30q-98 0 -164 57t-66 149q0 134 150 252h-97v109q-119 -137 -309 -138q-203 0 -305 125q-102 124 -102 339v608h327v-542q0 -227 187 -228q94 0 148 70q54 71 54 192v509h328v-1044q-61 -45 -102 -102q-41 -58 -41 -91
q0 -57 57 -57q73 2 119 60z" />
    <glyph glyph-name="Wcircumflex" unicode="&#x174;" horiz-adv-x="2066" 
d="M1034 1720l-90 -143h-287l224 307h307l223 -307h-287zM1708 1434h358l-428 -1434h-360l-244 852l-246 -852h-360l-428 1434h358l258 -947l265 947h305l264 -947z" />
    <glyph glyph-name="wcircumflex" unicode="&#x175;" horiz-adv-x="1705" 
d="M854 1331l-90 -143h-287l223 307h308l223 -307h-287zM1368 1044h338l-360 -1044h-304l-188 586l-190 -586h-304l-360 1044h338l190 -626l189 626h272l191 -626z" />
    <glyph glyph-name="Ycircumflex" unicode="&#x176;" horiz-adv-x="1415" 
d="M709 1720l-91 -143h-286l223 307h307l223 -307h-286zM1034 1434h381l-534 -918v-516h-344v516l-537 918h383l326 -586z" />
    <glyph glyph-name="ycircumflex" unicode="&#x177;" horiz-adv-x="1236" 
d="M627 1331l-90 -143h-287l223 307h307l224 -307h-287zM887 1044h350l-621 -1474h-333l186 455l14 2l-14 -2l-469 1019h358l273 -636z" />
    <glyph glyph-name="Ydieresis" unicode="&#x178;" horiz-adv-x="1415" 
d="M503 1538v-1q-66 0 -112 46t-46 112t46 111q47 45 112 45q67 0 114 -46q48 -47 48 -109q0 -66 -48 -112q-47 -46 -114 -46zM909 1537l-1 -1q-66 0 -112 46t-46 112t46 111q47 45 112 45q67 0 113 -46q47 -47 47 -109q0 -65 -47 -112q-46 -46 -112 -46zM1032 1432h381
l-534 -918v-516h-344v516l-537 918h383l326 -586z" />
    <glyph glyph-name="Zacute" unicode="&#x179;" horiz-adv-x="1306" 
d="M997 1884l-233 -291h-277l154 291h356zM535 301h710v-301h-1184v227l697 906h-686v301h1153v-232z" />
    <glyph glyph-name="zacute" unicode="&#x17a;" horiz-adv-x="1099" 
d="M895 1495l-233 -291h-277l154 291h356zM510 268h518v-268h-950v205l497 571h-485v268h920v-204z" />
    <glyph glyph-name="Zdotaccent" unicode="&#x17b;" horiz-adv-x="1306" 
d="M651 1550h-1q-74 0 -126 51t-52 125q0 72 53 123t126 51t126 -51q52 -51 52 -123q0 -74 -52 -125q-53 -51 -126 -51zM533 301h710v-301h-1184v227l697 906h-686v301h1153v-232z" />
    <glyph glyph-name="zdotaccent" unicode="&#x17c;" horiz-adv-x="1099" 
d="M549 1161q-73 0 -126 51q-52 51 -52 125q0 72 52 123q53 51 126 51t126 -51q52 -51 52 -123q0 -74 -52 -125q-53 -51 -126 -51zM510 268h518v-268h-950v205l497 571h-485v268h920v-204z" />
    <glyph glyph-name="Zcaron" unicode="&#x17d;" horiz-adv-x="1306" 
d="M498 1577l-224 307h287l90 -143l90 143h287l-223 -307h-307zM535 301h710v-301h-1184v227l697 906h-686v301h1153v-232z" />
    <glyph glyph-name="zcaron" unicode="&#x17e;" horiz-adv-x="1099" 
d="M395 1188l-223 307h287l90 -143l90 143h287l-224 -307h-307zM510 268h518v-268h-950v205l497 571h-485v268h920v-204z" />
    <glyph glyph-name="florin" unicode="&#x192;" horiz-adv-x="1116" 
d="M831 1526q170 0 264 -88l-121 -244q-51 57 -129 57q-115 0 -133 -155l-21 -168h258v-266h-293l-69 -551q-27 -206 -136 -316q-109 -111 -285 -111q-164 0 -258 100l115 229q51 -57 127 -57q119 0 137 156l69 551h-221v266h254l21 168q27 206 134 318q106 111 287 111z
" />
    <glyph glyph-name="uni0218" unicode="&#x218;" horiz-adv-x="1374" 
d="M725 -29l1 -6q-254 0 -429 126t-243 309l324 100q43 -106 139 -172t231 -66q101 0 162 40q62 41 62 96q0 89 -154 138l-369 114q-149 46 -240 146q-90 98 -88 234q-1 178 150 303q152 125 381 125q228 0 401 -109q175 -110 233 -267l-313 -92q-43 76 -129 124t-189 48
q-85 0 -138 -33q-52 -33 -52 -84q0 -73 96 -102l361 -115q188 -59 290 -147q102 -89 102 -255q0 -195 -163 -325t-426 -130zM544 -559l26 430h293l-67 -430h-252z" />
    <glyph glyph-name="uni0219" unicode="&#x219;" horiz-adv-x="1073" 
d="M547 -29l2 -3q-193 0 -337 96q-145 97 -185 229l292 86q27 -68 90 -110t152 -42q58 0 95 23q36 22 36 54q0 51 -98 80l-250 74q-264 80 -264 291q0 137 128 230t306 93q168 0 295 -72t178 -195l-287 -82q-71 98 -189 98q-45 0 -78 -18t-33 -46q0 -41 60 -62l241 -67
q69 -19 120 -41q50 -22 96 -55q48 -35 72 -88q24 -54 24 -126q0 -152 -130 -249q-131 -98 -336 -98zM377 -556l26 430h293l-67 -430h-252z" />
    <glyph glyph-name="uni021A" unicode="&#x21a;" horiz-adv-x="1314" 
d="M1284 1434v-308h-457v-1126h-340v1126h-456v308h1253zM489 -557l27 434h293l-68 -434h-252z" />
    <glyph glyph-name="uni021B" unicode="&#x21b;" horiz-adv-x="847" 
d="M807 35l1 -1q-129 -51 -256 -51q-184 0 -277 105t-93 289v381h-162v286h162v328h328v-328h281v-286h-281v-381q0 -109 108 -109q58 0 111 27zM335 -558l26 434h293l-67 -434h-252z" />
    <glyph glyph-name="circumflex" unicode="&#x2c6;" horiz-adv-x="753" 
d="M754 1188h-287l-90 143l-90 -143h-287l223 307h307z" />
    <glyph glyph-name="caron" unicode="&#x2c7;" horiz-adv-x="753" 
d="M467 1495h287l-224 -307h-307l-223 307h287l90 -143z" />
    <glyph glyph-name="breve" unicode="&#x2d8;" horiz-adv-x="716" 
d="M358 1161q-176 0 -268 89q-91 88 -91 227h248q0 -121 111 -121t111 121h248q0 -136 -91 -226q-92 -90 -268 -90z" />
    <glyph glyph-name="dotaccent" unicode="&#x2d9;" horiz-adv-x="356" 
d="M178 1165q-74 0 -126 51t-52 125q0 72 52 123t126 51t126 -51t52 -123q0 -74 -52 -125t-126 -51z" />
    <glyph glyph-name="ring" unicode="&#x2da;" horiz-adv-x="532" 
d="M266 1110l-1 -4q-113 0 -190 74q-76 73 -76 185t76 185q77 74 191 74q115 0 189 -73q75 -73 75 -184t-75 -184q-74 -73 -189 -73zM264 1278v-1q39 0 63 24t24 63q0 38 -24 62t-63 24t-63 -24t-24 -61q0 -39 24 -63t63 -24z" />
    <glyph glyph-name="ogonek" unicode="&#x2db;" horiz-adv-x="466" 
d="M229 -459v1q-97 0 -163 57t-66 149q0 134 150 252h231q-61 -45 -102 -102q-41 -58 -41 -91q0 -57 57 -57q72 0 119 60l53 -168q-32 -41 -96 -71q-65 -30 -142 -30z" />
    <glyph glyph-name="tilde" unicode="&#x2dc;" horiz-adv-x="716" 
d="M504 1167v1q-66 0 -151 48q-86 48 -103 48q-43 0 -43 -88h-207q0 319 213 319q65 0 151 -48q85 -48 103 -48q43 0 43 88h207q0 -320 -213 -320z" />
    <glyph glyph-name="hungarumlaut" unicode="&#x2dd;" horiz-adv-x="866" 
d="M0 1204l168 291h293l-178 -291h-283zM389 1204l184 291h293l-194 -291h-283z" />
    <glyph glyph-name="gravecomb" unicode="&#x300;" 
d="M0 1204h-276l-234 291h356z" />
    <glyph glyph-name="acutecomb" unicode="&#x301;" 
d="M-510 1204l154 291h356l-233 -291h-277z" />
    <glyph glyph-name="uni0302" unicode="&#x302;" 
d="M0 1188h-287l-90 143l-90 -143h-287l224 307h307z" />
    <glyph glyph-name="tildecomb" unicode="&#x303;" 
d="M-213 1167v1q-65 0 -151 48t-103 48q-43 0 -43 -88h-207q0 319 213 319q66 0 151 -48q86 -48 103 -48q43 0 43 88h207q0 -320 -213 -320z" />
    <glyph glyph-name="uni0304" unicode="&#x304;" 
d="M-614 1204v226h614v-226h-614z" />
    <glyph glyph-name="uni0306" unicode="&#x306;" 
d="M-359 1161q-176 0 -268 89q-91 88 -91 227h248q0 -121 111 -121t111 121h248q0 -136 -91 -226t-268 -90z" />
    <glyph glyph-name="uni0307" unicode="&#x307;" 
d="M-178 1161q-74 0 -126 51t-52 125q0 72 52 123t126 51t126 -51t52 -123q0 -74 -52 -125t-126 -51z" />
    <glyph glyph-name="uni0308" unicode="&#x308;" 
d="M-566 1149l-1 -1q-66 0 -112 46t-46 112t46 111q47 45 112 45q67 0 113 -46q47 -47 47 -109q0 -65 -47 -112q-46 -46 -112 -46zM-161 1148l-1 -1q-66 0 -112 46t-46 112t46 111t112 45q67 0 113 -46q47 -47 47 -109q0 -65 -47 -112q-46 -46 -112 -46z" />
    <glyph glyph-name="uni030A" unicode="&#x30a;" 
d="M-267 1110l-1 -4q-113 0 -189 74q-75 74 -75 185t75 185q76 74 189 74q115 0 191 -73t76 -184t-76 -184t-190 -73zM-268 1278v-1q39 0 63 24t24 63q0 38 -24 62t-63 24t-63 -24t-24 -61q0 -39 24 -63t63 -24z" />
    <glyph glyph-name="uni030B" unicode="&#x30b;" 
d="M-866 1204l168 291h292l-178 -291h-282zM-477 1204l184 291h293l-195 -291h-282z" />
    <glyph glyph-name="uni030C" unicode="&#x30c;" 
d="M-287 1495h287l-223 -307h-307l-224 307h287l90 -143z" />
    <glyph glyph-name="uni0312" unicode="&#x312;" 
d="M0 1647l-27 -430h-292l67 430h252z" />
    <glyph glyph-name="uni0326" unicode="&#x326;" 
d="M-319 -553l26 430h293l-68 -430h-251z" />
    <glyph glyph-name="uni0327" unicode="&#x327;" 
d="M-248 -459h-2q-129 0 -221 72l35 121q56 -39 133 -38q78 2 78 54q0 46 -57 62q-57 17 -110 0l59 188h228l-35 -109q58 -11 99 -57q40 -46 40 -103q0 -88 -67 -139q-68 -51 -180 -51z" />
    <glyph glyph-name="uni0328" unicode="&#x328;" 
d="M-238 -459v1q-97 0 -163 57t-66 149q0 134 150 252h231q-62 -45 -102 -102q-41 -58 -41 -91q0 -57 57 -57q72 0 119 60l53 -168q-32 -41 -96 -71q-65 -30 -142 -30z" />
    <glyph glyph-name="uni0394" unicode="&#x394;" horiz-adv-x="1495" 
d="M971 1434l524 -1434h-1495l524 1434h447zM459 301h577l-288 803z" />
    <glyph glyph-name="uni03A9" unicode="&#x3a9;" horiz-adv-x="1642" 
d="M1581 776v-1q0 -287 -215 -479h215v-297h-612v297q119 53 197 177t78 253q0 184 -117 303t-306 119t-306 -119t-117 -303q0 -129 79 -253q79 -125 198 -177v-297h-615v297h215q-215 194 -215 480q0 285 218 486t543 201t543 -201q217 -201 217 -486z" />
    <glyph glyph-name="uni03BC" unicode="&#x3bc;" horiz-adv-x="1374" 
d="M1296 258l66 -251q-90 -37 -176 -37q-207 0 -291 125q-110 -125 -289 -125q-81 0 -156 31v-432h-328v1474h328v-542q0 -227 186 -228q95 0 149 70q54 71 54 192v509h327v-702q0 -96 70 -96q22 0 60 12z" />
    <glyph glyph-name="pi" unicode="&#x3c0;" horiz-adv-x="1331" 
d="M1233 256l66 -240q-84 -37 -178 -36q-325 0 -323 360v416h-271v-756h-307v756h-190v286h1263v-286h-188v-416q0 -94 65 -94q33 0 63 10z" />
    <glyph glyph-name="Wgrave" unicode="&#x1e80;" horiz-adv-x="2066" 
d="M1198 1593h-276l-234 291h356zM1708 1434h358l-428 -1434h-360l-244 852l-246 -852h-360l-428 1434h358l258 -947l265 947h305l264 -947z" />
    <glyph glyph-name="wgrave" unicode="&#x1e81;" horiz-adv-x="1705" 
d="M1018 1204h-277l-233 291h356zM1368 1044h338l-360 -1044h-304l-188 586l-190 -586h-304l-360 1044h338l190 -626l189 626h272l191 -626z" />
    <glyph glyph-name="Wacute" unicode="&#x1e82;" horiz-adv-x="2066" 
d="M1380 1884l-233 -291h-277l154 291h356zM1708 1434h358l-428 -1434h-360l-244 852l-246 -852h-360l-428 1434h358l258 -947l265 947h305l264 -947z" />
    <glyph glyph-name="wacute" unicode="&#x1e83;" horiz-adv-x="1705" 
d="M1200 1495l-233 -291h-277l154 291h356zM1368 1044h338l-360 -1044h-304l-188 586l-190 -586h-304l-360 1044h338l190 -626l189 626h272l191 -626z" />
    <glyph glyph-name="Wdieresis" unicode="&#x1e84;" horiz-adv-x="2066" 
d="M829 1538l-1 -1q-66 0 -112 46t-46 112t46 111q47 45 112 45q67 0 113 -46q47 -47 47 -109q0 -65 -47 -112q-46 -46 -112 -46zM1233 1537v-1q-66 0 -112 46t-46 112t46 111t112 45q67 0 114 -46q48 -47 48 -109q0 -65 -48 -112q-47 -46 -114 -46zM1706 1432h358
l-428 -1434h-360l-244 852l-246 -852h-360l-428 1434h358l258 -947l265 947h305l264 -947z" />
    <glyph glyph-name="wdieresis" unicode="&#x1e85;" horiz-adv-x="1705" 
d="M649 1149l-1 -1q-66 0 -112 46t-46 112t46 111t112 45q67 0 113 -46q47 -47 47 -109q0 -65 -47 -112q-46 -46 -112 -46zM1053 1148l-1 -1q-66 0 -112 46t-46 112t46 111t112 45q67 0 113 -46q47 -47 47 -109q0 -65 -47 -112q-46 -46 -112 -46zM1365 1042h338l-360 -1044
h-304l-188 586l-190 -586h-304l-360 1044h338l190 -626l189 626h272l191 -626z" />
    <glyph glyph-name="Ygrave" unicode="&#x1ef2;" horiz-adv-x="1415" 
d="M872 1593h-276l-234 291h357zM1034 1434h381l-534 -918v-516h-344v516l-537 918h383l326 -586z" />
    <glyph glyph-name="ygrave" unicode="&#x1ef3;" horiz-adv-x="1236" 
d="M791 1204h-277l-233 291h356zM887 1044h350l-621 -1474h-333l186 455l14 2l-14 -2l-469 1019h358l273 -636z" />
    <glyph glyph-name="endash" unicode="&#x2013;" horiz-adv-x="1249" 
d="M113 492v266h1024v-266h-1024z" />
    <glyph glyph-name="emdash" unicode="&#x2014;" horiz-adv-x="1863" 
d="M113 492v266h1638v-266h-1638z" />
    <glyph glyph-name="quoteleft" unicode="&#x2018;" horiz-adv-x="591" 
d="M510 1434l-90 -605h-338l174 605h254z" />
    <glyph glyph-name="quoteright" unicode="&#x2019;" horiz-adv-x="591" 
d="M82 829l90 605h338l-174 -605h-254z" />
    <glyph glyph-name="quotesinglbase" unicode="&#x201a;" horiz-adv-x="591" 
d="M82 -281l90 605h338l-174 -605h-254z" />
    <glyph glyph-name="quotedblleft" unicode="&#x201c;" horiz-adv-x="1021" 
d="M510 1434l-90 -605h-338l174 605h254zM940 1434l-90 -605h-338l174 605h254z" />
    <glyph glyph-name="quotedblright" unicode="&#x201d;" horiz-adv-x="1021" 
d="M82 829l90 605h338l-174 -605h-254zM512 829l90 605h338l-174 -605h-254z" />
    <glyph glyph-name="quotedblbase" unicode="&#x201e;" horiz-adv-x="1021" 
d="M82 -281l90 605h338l-174 -605h-254zM512 -281l90 605h338l-174 -605h-254z" />
    <glyph glyph-name="dagger" unicode="&#x2020;" horiz-adv-x="1044" 
d="M358 0v901h-297v297h297v297h328v-297h297v-297h-297v-901h-328z" />
    <glyph glyph-name="daggerdbl" unicode="&#x2021;" horiz-adv-x="1044" 
d="M358 0v297h-297v297h297v307h-297v297h297v297h328v-297h297v-297h-297v-307h297v-297h-297v-297h-328z" />
    <glyph glyph-name="bullet" unicode="&#x2022;" horiz-adv-x="737" 
d="M371 311l-1 1q-121 1 -205 84q-84 82 -84 201q0 115 83 193q82 77 206 82q118 2 201 -78t83 -196q0 -122 -82 -205q-82 -84 -201 -82z" />
    <glyph glyph-name="ellipsis" unicode="&#x2026;" horiz-adv-x="1550" 
d="M276 -16h-2q-83 0 -138 55q-56 56 -56 138q0 78 57 132t138 54q80 0 137 -54t57 -132q0 -83 -57 -138q-56 -55 -136 -55zM774 -16h-1q-83 0 -138 55q-56 56 -56 138q0 78 56 132q55 54 138 54q80 0 137 -54t57 -132q0 -83 -57 -138q-56 -55 -136 -55zM1273 -16
q-83 0 -139 55q-57 55 -57 138q0 78 57 132t139 54q79 0 135 -54t56 -132q0 -82 -56 -138q-55 -55 -135 -55z" />
    <glyph glyph-name="perthousand" unicode="&#x2030;" horiz-adv-x="3133" 
d="M502 612q-181 0 -305 121q-125 122 -125 297q0 176 123 297q122 121 306 121q183 0 307 -121t124 -297t-124 -297t-306 -121zM504 0l930 1434h254l-928 -1434h-256zM502 848h-1q79 0 132 53q52 52 52 129q0 78 -52 130t-132 52t-132 -52t-52 -130q0 -76 53 -129t132 -53z
M1691 -16q-181 0 -305 120q-125 120 -125 297t123 297t306 120q182 0 307 -120q124 -120 124 -297t-124 -297q-125 -120 -306 -120zM2631 -16q-181 0 -305 120q-125 120 -125 297t123 297t306 120q182 0 307 -120q124 -120 124 -297t-124 -297q-125 -120 -306 -120z
M1691 219l-1 -3q80 0 132 54q52 53 52 129q0 79 -52 131q-53 53 -132 53q-80 0 -132 -52t-52 -130q0 -76 53 -129t132 -53zM2630 216l-1 -3q79 0 132 54q52 53 52 129q0 79 -52 131q-53 53 -132 53q-80 0 -132 -52t-52 -130q0 -76 53 -129t132 -53z" />
    <glyph glyph-name="guilsinglleft" unicode="&#x2039;" horiz-adv-x="727" 
d="M614 1044l-204 -389l204 -389h-286l-215 389l215 389h286z" />
    <glyph glyph-name="guilsinglright" unicode="&#x203a;" horiz-adv-x="727" 
d="M399 1044l215 -389l-215 -389h-286l204 389l-204 389h286z" />
    <glyph glyph-name="fraction" unicode="&#x2044;" horiz-adv-x="362" 
d="M-369 0l885 1434h215l-885 -1434h-215z" />
    <glyph glyph-name="uni2070" unicode="&#x2070;" horiz-adv-x="841" 
d="M422 899l-3 1q-173 0 -277 117q-103 116 -103 318q0 200 104 315q103 114 278 114q167 0 273 -117q107 -118 107 -313q0 -202 -103 -318q-104 -117 -276 -117zM419 1127q127 0 127 207q0 203 -127 203q-129 0 -129 -203q0 -207 129 -207z" />
    <glyph glyph-name="uni2074" unicode="&#x2074;" horiz-adv-x="729" 
d="M709 1268v-205h-91v-141h-229v141h-379v182l262 496h252l-243 -473h108v112h229v-112h91z" />
    <glyph glyph-name="uni2075" unicode="&#x2075;" horiz-adv-x="716" 
d="M408 1450v-1q123 0 195 -76q72 -77 72 -195q0 -122 -85 -201q-86 -80 -220 -80q-143 0 -230 69q-86 69 -109 168l211 59q38 -90 118 -90q40 0 66 23q25 22 25 57q0 37 -26 61q-25 24 -71 24q-64 0 -116 -31l-175 55l39 449h535v-205h-338l-6 -100q47 14 115 14z" />
    <glyph glyph-name="uni2076" unicode="&#x2076;" horiz-adv-x="700" 
d="M399 1485v2q119 -11 200 -90t81 -201q0 -129 -94 -213t-237 -84t-238 85t-91 214q5 85 58 174l229 369h248zM350 1106v-1q44 0 72 26q27 25 27 66q0 39 -27 66t-72 27t-72 -27t-27 -66q0 -41 27 -66q26 -25 72 -25z" />
    <glyph glyph-name="uni2077" unicode="&#x2077;" horiz-adv-x="638" 
d="M6 1741h623v-166l-273 -653h-254l254 610h-350v209z" />
    <glyph glyph-name="uni2078" unicode="&#x2078;" horiz-adv-x="739" 
d="M582 1368l-1 -1q127 -67 127 -209q0 -112 -93 -186q-92 -73 -246 -73q-152 0 -246 74q-93 73 -93 186q0 142 127 209q-92 56 -92 166q0 96 84 162t222 66q135 0 219 -66t84 -162q0 -110 -92 -166zM370 1568l-4 -1q-39 0 -61 -19t-22 -51q0 -31 23 -51q22 -19 62 -19
t62 19q23 20 23 51q0 32 -22 51q-23 20 -61 20zM366 1098q47 0 71 24t24 63q0 35 -25 59t-70 24q-46 0 -71 -24q-26 -24 -26 -59q0 -39 25 -63q26 -24 72 -24z" />
    <glyph glyph-name="uni2079" unicode="&#x2079;" horiz-adv-x="700" 
d="M350 1763l-2 -1q144 0 239 -85q96 -86 92 -214q-5 -84 -57 -174l-230 -368h-248l156 256q-119 11 -200 90t-81 199q0 129 95 213q94 84 236 84zM348 1373q45 0 72 27t27 66q0 40 -27 66q-28 26 -72 26t-72 -26q-27 -26 -27 -66q0 -39 27 -66t72 -27z" />
    <glyph glyph-name="uni2080" unicode="&#x2080;" horiz-adv-x="841" 
d="M422 -330h-3q-173 0 -277 117q-103 116 -103 318q0 200 104 316q103 115 278 115q167 0 273 -117q107 -118 107 -314q0 -202 -103 -318q-104 -117 -276 -117zM419 -102q127 0 127 206q0 203 -127 203q-129 0 -129 -203q0 -206 129 -206z" />
    <glyph glyph-name="uni2081" unicode="&#x2081;" horiz-adv-x="587" 
d="M276 512h209v-819h-243v549l-183 -84l-59 209z" />
    <glyph glyph-name="uni2082" unicode="&#x2082;" horiz-adv-x="731" 
d="M406 -98l282 2v-209h-655v149l319 297q76 73 76 119q0 27 -19 45t-54 18q-79 0 -105 -125l-219 63q12 113 101 194q88 81 219 81q149 0 238 -71q88 -70 88 -198q0 -71 -28 -123t-94 -109z" />
    <glyph glyph-name="uni2083" unicode="&#x2083;" horiz-adv-x="743" 
d="M526 203l1 -5q81 -26 128 -88q48 -63 48 -155q0 -124 -91 -206q-92 -83 -228 -83q-161 0 -247 79q-87 79 -105 195l211 61q11 -59 46 -93q37 -35 89 -35q46 0 71 24q26 24 26 63t-27 66t-82 27q-38 0 -75 -6l-35 127l125 135h-320v203h613v-164z" />
    <glyph glyph-name="uni2084" unicode="&#x2084;" horiz-adv-x="729" 
d="M709 39v-205h-91v-141h-229v141h-379v182l262 496h252l-243 -473h108v113h229v-113h91z" />
    <glyph glyph-name="uni2085" unicode="&#x2085;" horiz-adv-x="716" 
d="M408 221v-3q123 0 195 -75t72 -194q0 -122 -85 -201q-86 -80 -220 -80q-143 0 -230 69q-86 69 -109 168l211 59q38 -90 118 -90q40 0 66 23q25 22 25 57q0 37 -26 61q-25 24 -71 24q-64 0 -116 -31l-175 55l39 449h535v-205h-338l-6 -100q47 14 115 14z" />
    <glyph glyph-name="uni2086" unicode="&#x2086;" horiz-adv-x="700" 
d="M399 256v2q119 -11 200 -90q81 -80 81 -201q0 -129 -94 -213t-237 -84t-238 85t-91 214q5 85 58 174l229 369h248zM350 -123v-1q44 0 72 26q27 26 27 66q0 39 -27 66t-72 27t-72 -27t-27 -66q0 -40 27 -66q26 -25 72 -25z" />
    <glyph glyph-name="uni2087" unicode="&#x2087;" horiz-adv-x="638" 
d="M6 512h623v-166l-273 -653h-254l254 610h-350v209z" />
    <glyph glyph-name="uni2088" unicode="&#x2088;" horiz-adv-x="739" 
d="M582 139l-1 -1q127 -67 127 -209q0 -113 -93 -186q-92 -73 -246 -73q-152 0 -246 74q-93 74 -93 186q0 142 127 209q-92 56 -92 166q0 95 84 163q83 67 222 67q136 0 219 -67q84 -67 84 -163q0 -110 -92 -166zM370 339l-4 -2q-39 0 -61 -19t-22 -50q0 -30 23 -50
q22 -19 62 -19q39 0 62 20t23 50q0 31 -22 50q-23 20 -61 20zM366 -132q47 0 71 24t24 63q0 35 -25 59q-26 24 -70 24q-46 0 -71 -24q-26 -24 -26 -59q0 -39 25 -63q26 -24 72 -24z" />
    <glyph glyph-name="uni2089" unicode="&#x2089;" horiz-adv-x="700" 
d="M350 535l-2 -2q144 0 239 -85q96 -86 92 -214q-4 -83 -57 -175l-230 -368h-248l156 256q-119 11 -200 90t-81 201q0 129 95 213q94 84 236 84zM348 143v-1q45 0 72 27t27 66q0 41 -27 66q-28 26 -72 26q-46 0 -72 -25q-27 -26 -27 -66q0 -39 27 -66t72 -27z" />
    <glyph glyph-name="franc" unicode="&#x20a3;" horiz-adv-x="1292" 
d="M1200 1124h-680v-243h617v-303h-617v-187h320v-174h-320v-217h-340v217h-119v174h119v1043h1020v-310z" />
    <glyph glyph-name="lira" unicode="&#x20a4;" horiz-adv-x="1306" 
d="M551 315l696 -2v-315h-1163v315h133v115h-109v174h109v109h-109v174h109v117q0 219 134 339q133 120 357 120q188 0 317 -114t147 -272l-305 -88q-34 172 -168 172q-70 0 -109 -47q-39 -46 -39 -129v-96h457v-174h-457v-109h457v-174h-457v-115z" />
    <glyph glyph-name="Euro" unicode="&#x20ac;" horiz-adv-x="1546" 
d="M1278 397l206 -266q-201 -162 -488 -162q-262 0 -459 143q-197 142 -267 375h-231v175h201q-2 24 -2 53q0 31 2 55h-201v174h231q72 232 267 374q196 143 453 143q284 0 490 -162l-207 -264q-112 106 -281 108q-232 0 -348 -197h461v-174h-516q-2 -24 -2 -53q0 -22 4 -55
h514v-175h-459q52 -90 143 -144q90 -54 204 -54q175 0 285 106z" />
    <glyph glyph-name="uni20BF" unicode="&#x20bf;" horiz-adv-x="1517" 
d="M1425 410l-2 1q0 -182 -121 -291q-122 -110 -336 -120v-297h-238v297h-170v-297h-237v297h-261v295h168v846h-168v293h261v297h237v-297h170v297h238v-301q186 -18 297 -123t111 -263q0 -195 -170 -294q221 -110 221 -340zM887 1142l-328 -1v-283h328q66 0 111 42t45 102
t-45 101t-111 39zM924 295l1 1q75 0 119 43q45 43 45 102q0 63 -45 105t-120 42h-365v-293h365z" />
    <glyph glyph-name="uni2116" unicode="&#x2116;" horiz-adv-x="2293" 
d="M1876 766v1q-154 0 -258 101q-103 100 -103 248t103 248t258 100q153 0 254 -100q102 -100 102 -249q0 -145 -103 -247t-253 -102zM1044 613v822h340v-1434h-276l-645 821v-821h-340v1434h276zM1876 1246h2q-62 0 -99 -37t-37 -94q0 -55 38 -93t96 -38q56 0 93 39
q38 40 38 92q0 55 -38 93t-93 38zM1554 450v225h643v-225h-643z" />
    <glyph glyph-name="trademark" unicode="&#x2122;" horiz-adv-x="1492" 
d="M254 778v486h-193v170h574v-170h-197v-486h-184zM696 778v656h185l182 -267l180 267h189v-656h-181v367l-186 -258l-193 258v-367h-176z" />
    <glyph glyph-name="estimated" unicode="&#x212e;" horiz-adv-x="1701" 
d="M870 -23v-1q-343 0 -573 215q-229 214 -229 530q0 305 229 521t555 216t554 -216t228 -521v-33h-1259v-432q184 -217 495 -217q286 0 468 192h162q-260 -254 -630 -254zM375 749h952v430q-184 217 -475 217q-293 0 -477 -217v-430z" />
    <glyph glyph-name="oneeighth" unicode="&#x215b;" horiz-adv-x="1689" 
d="M242 614v549l-183 -84l-59 209l276 146h209v-820h-243zM1104 1434h215l-885 -1434h-215zM1532 446v-2q127 -67 127 -207q0 -112 -92 -186t-246 -74q-153 0 -247 74q-93 73 -93 186q0 141 127 208q-92 56 -92 166q0 95 84 163q83 67 221 67q135 0 219 -66t84 -163
q0 -110 -92 -166zM1321 645l-4 -2q-39 0 -61 -19t-22 -50q0 -30 23 -50q22 -19 62 -19q39 0 62 20t23 50q0 31 -22 50q-23 20 -61 20zM1317 174q47 0 71 24t24 63q0 35 -25 59t-70 24q-44 0 -70 -24q-25 -24 -25 -59q0 -39 24 -63t71 -24z" />
    <glyph glyph-name="threeeighths" unicode="&#x215c;" horiz-adv-x="1845" 
d="M702 881l1 -3q0 -124 -91 -206q-92 -83 -228 -83q-161 0 -247 79q-87 80 -105 193l211 62q11 -59 46 -93q37 -35 89 -35q46 0 71 24q26 24 26 63t-27 66t-82 27q-38 0 -75 -6l-35 127l125 135h-320v203h613v-164l-148 -146q81 -26 128 -88q48 -63 48 -155zM1261 1431h215
l-885 -1434h-215zM1689 443v-2q127 -67 127 -207q0 -112 -93 -186q-94 -74 -246 -74t-246 74q-93 74 -93 186q0 141 127 208q-92 56 -93 166q0 96 84 163q83 67 222 67q135 0 219 -66t84 -163q0 -110 -92 -166zM1478 642l-4 -2q-39 0 -61 -19t-22 -50q0 -30 23 -50
q22 -19 62 -19q39 0 62 20t23 50q0 31 -22 50q-23 20 -61 20zM1474 171q47 0 71 24t24 63q0 35 -25 59q-26 24 -70 24q-46 0 -71 -24q-26 -24 -26 -59q0 -39 25 -63q26 -24 72 -24z" />
    <glyph glyph-name="fiveeighths" unicode="&#x215d;" horiz-adv-x="1818" 
d="M676 872v-2q0 -122 -85 -201t-220 -79q-143 0 -230 69q-86 68 -109 167l211 60q37 -90 118 -90q40 0 66 23q25 22 25 57q0 37 -26 61q-25 24 -71 24q-64 0 -116 -31l-175 55l39 449h535v-205h-338l-6 -101q45 14 115 15q123 0 195 -76q72 -77 72 -195zM1233 1432h215
l-885 -1434h-215zM1661 444v-2q127 -67 127 -207q0 -112 -92 -186t-246 -74q-153 0 -247 74q-93 73 -93 186q0 141 127 208q-92 56 -92 166q0 95 84 163q83 67 221 67q135 0 219 -66t84 -163q0 -110 -92 -166zM1450 643l-4 -2q-39 0 -61 -19t-22 -50q0 -30 23 -50
q22 -19 62 -19q39 0 62 20t23 50q0 31 -22 50q-23 20 -61 20zM1446 172q47 0 71 24t24 63q0 35 -25 59q-26 24 -70 24t-70 -24q-25 -24 -25 -59q0 -39 24 -63t71 -24z" />
    <glyph glyph-name="seveneighths" unicode="&#x215e;" horiz-adv-x="1740" 
d="M356 614h-254l254 611h-350v209h623v-166zM1155 1434h215l-885 -1434h-215zM1583 446l-2 -2q127 -67 127 -207q0 -112 -92 -186t-245 -74q-152 0 -246 74q-93 73 -93 186q0 141 127 208q-92 56 -92 166q0 95 84 163q83 67 221 67q135 0 219 -66t84 -163q0 -110 -92 -166z
M1370 645l-4 -2q-39 0 -61 -19t-22 -50q0 -30 23 -50q22 -19 62 -19q39 0 62 20t23 50q0 31 -22 50q-23 20 -61 20zM1366 174q47 0 71 24t24 63q0 35 -25 59q-26 24 -70 24t-70 -24q-25 -24 -25 -59q0 -39 24 -63t71 -24z" />
    <glyph glyph-name="arrowleft" unicode="&#x2190;" horiz-adv-x="1689" 
d="M1577 815v-287h-922l346 -340l-202 -202l-686 686l686 686l202 -203l-346 -340h922z" />
    <glyph glyph-name="arrowup" unicode="&#x2191;" horiz-adv-x="1597" 
d="M1485 778l-203 -203l-330 336v-911h-307v911l-330 -336l-202 203l686 686z" />
    <glyph glyph-name="arrowright" unicode="&#x2192;" horiz-adv-x="1689" 
d="M891 1364l686 -686l-686 -686l-203 203l346 340h-921v286h921l-346 340z" />
    <glyph glyph-name="arrowdown" unicode="&#x2193;" horiz-adv-x="1597" 
d="M1282 858l203 -203l-686 -686l-686 686l202 203l330 -336v912h307v-912z" />
    <glyph glyph-name="arrowboth" unicode="&#x2194;" horiz-adv-x="2338" 
d="M1540 1364l686 -686l-686 -686l-203 203l346 340h-1028l346 -340l-202 -203l-686 686l686 686l202 -203l-346 -340h1028l-346 340z" />
    <glyph glyph-name="arrowupdn" unicode="&#x2195;" horiz-adv-x="1597" 
d="M952 174l330 336l203 -203l-686 -686l-686 686l202 203l330 -336v1008l-330 -336l-202 203l686 686l686 -686l-203 -203l-330 336v-1008z" />
    <glyph glyph-name="uni2196" unicode="&#x2196;" horiz-adv-x="1366" 
d="M1253 236l-211 -211l-647 647l4 -475l-286 -2v970h968l2 -286l-477 4z" />
    <glyph glyph-name="uni2197" unicode="&#x2197;" horiz-adv-x="1366" 
d="M283 1227h970v-969l-286 -2l4 477l-647 -647l-211 211l647 647l-475 -4z" />
    <glyph glyph-name="uni2198" unicode="&#x2198;" horiz-adv-x="1366" 
d="M967 1075l286 2v-971h-968l-2 287l477 -4l-647 647l211 211l647 -647z" />
    <glyph glyph-name="uni2199" unicode="&#x2199;" horiz-adv-x="1366" 
d="M606 330l475 4l2 -287h-970v969l286 2l-4 -477l647 647l211 -211z" />
    <glyph glyph-name="partialdiff" unicode="&#x2202;" horiz-adv-x="1310" 
d="M618 -29l-1 -1q-220 0 -378 149q-157 148 -157 363q0 213 141 354t360 141q90 0 178 -33q89 -33 144 -88q-18 139 -108 235t-226 96q-196 0 -338 -139l-69 260q184 154 447 153q280 0 450 -212q169 -211 169 -554q0 -334 -168 -529t-444 -195zM630 259h2q113 0 185 83
q73 83 80 192q-29 62 -108 114q-80 53 -168 53q-95 0 -160 -63q-64 -63 -64 -151q0 -95 65 -162q64 -66 168 -66z" />
    <glyph glyph-name="emptyset" unicode="&#x2205;" horiz-adv-x="1034" 
d="M905 958h-2q101 -127 103 -303q2 -203 -136 -342t-341 -139q-173 0 -303 107l-131 -131l-86 86l133 133q-90 125 -90 285q0 203 138 344q138 140 340 139q161 0 289 -95l121 121l84 -86zM272 655h-1q0 -71 31 -126l350 349q-55 31 -127 30q-109 0 -181 -72t-72 -181z
M525 401h1q110 0 183 73q74 74 75 181q0 78 -43 142l-354 -355q59 -41 138 -41z" />
    <glyph glyph-name="product" unicode="&#x220f;" horiz-adv-x="1343" 
d="M1231 1495v-1925h-328v1628h-463v-1628h-327v1925h1118z" />
    <glyph glyph-name="summation" unicode="&#x2211;" horiz-adv-x="1359" 
d="M504 -113h774v-297h-1196v260l551 709l-516 676v260h1120v-297h-700l481 -641z" />
    <glyph glyph-name="minus" unicode="&#x2212;" horiz-adv-x="1146" 
d="M113 590v256h921v-256h-921z" />
    <glyph glyph-name="radical" unicode="&#x221a;" horiz-adv-x="1538" 
d="M1231 1618h328l-562 -1804h-348l-293 768h-274v276h504l229 -680z" />
    <glyph glyph-name="infinity" unicode="&#x221e;" horiz-adv-x="1769" 
d="M1274 1147q173 0 294 -127t121 -303q0 -181 -121 -305q-122 -125 -294 -125q-219 0 -387 209q-173 -209 -391 -209q-172 0 -294 125q-121 124 -121 305q0 176 121 303t294 127q218 0 391 -213q168 213 387 213zM506 547v-1q112 0 252 168q-140 168 -252 168
q-67 0 -113 -49q-47 -50 -47 -119q0 -68 47 -118q46 -49 113 -49zM1266 546l-2 -1q67 0 113 49q47 50 47 119t-47 119t-111 50q-112 0 -252 -168q140 -168 252 -168z" />
    <glyph glyph-name="integral" unicode="&#x222b;" horiz-adv-x="1214" 
d="M264 -319q-170 0 -264 88l121 258q51 -56 119 -58q124 0 143 142l145 1079q57 426 422 426q170 0 264 -88l-120 -258q-51 57 -119 57q-123 0 -144 -141l-145 -1080q-57 -425 -422 -425z" />
    <glyph glyph-name="approxequal" unicode="&#x2248;" horiz-adv-x="1241" 
d="M403 731l-292 82q0 129 68 224t204 95q95 0 226 -57t153 -57q74 0 74 115l290 -84q0 -131 -66 -224t-201 -93q-97 0 -227 57t-153 57q-76 0 -76 -115zM401 305l-292 82q0 129 68 224t204 95q95 0 226 -57t153 -57q74 0 74 115l290 -84q0 -131 -66 -224t-201 -93
q-97 0 -227 57t-153 57q-76 0 -76 -115z" />
    <glyph glyph-name="notequal" unicode="&#x2260;" horiz-adv-x="1146" 
d="M1034 795h-313l-68 -154h381v-256h-491l-111 -252h-225l110 252h-204v256h315l68 154h-383v256h493l109 249h225l-109 -249h203v-256z" />
    <glyph glyph-name="lessequal" unicode="&#x2264;" horiz-adv-x="1157" 
d="M1034 1386v-276l-618 -219l618 -221v-277l-921 348v297zM113 86v256h921v-256h-921z" />
    <glyph glyph-name="greaterequal" unicode="&#x2265;" horiz-adv-x="1157" 
d="M123 1386l921 -348v-297l-921 -348v277l618 221l-618 219v276zM123 86v256h921v-256h-921z" />
    <glyph glyph-name="lozenge" unicode="&#x25ca;" horiz-adv-x="1308" 
d="M831 1434l396 -717l-396 -717h-352l-397 717l397 717h352zM655 295l232 422l-232 422l-233 -422z" />
    <glyph glyph-name="glyph1" 
 />
    <glyph glyph-name="glyph2" horiz-adv-x="681" 
 />
    <glyph glyph-name="i.aalt" horiz-adv-x="573" 
d="M286 1161h-1q-73 0 -126 51q-52 51 -52 125q0 72 52 123q53 51 126 51t126 -51t53 -123q0 -74 -52 -125t-126 -51zM121 0v1044h328v-1044h-328z" />
    <glyph glyph-name="f_f_j.dlig" horiz-adv-x="2037" 
d="M1942 1044v-1043q0 -217 -96 -339q-96 -121 -291 -121q-103 0 -206 45l71 250q38 -20 81 -20q113 0 113 153v789h-369v-758h-327v758h-369v-758h-328v758h-190v286h190v74q0 188 105 297t302 109q146 0 246 -45l-77 -260q-53 23 -117 21q-53 0 -92 -33t-39 -89v-74h369
v74q0 187 113 297q112 109 326 109q223 0 381 -90l-78 -260q-134 68 -264 66q-61 0 -106 -33t-45 -89v-74h697z" />
    <glyph glyph-name="f_j.dlig" horiz-adv-x="1341" 
d="M1245 1044l-2 -1043q0 -217 -95 -339q-94 -121 -290 -121q-102 0 -207 45l72 250q38 -20 81 -20q113 0 113 153v789h-369v-758h-328v758h-190v286h190v74q0 187 113 297q112 109 326 109q223 0 381 -90l-77 -260q-133 67 -265 66q-62 0 -105 -33q-44 -33 -44 -89v-74h696
z" />
    <glyph glyph-name="f_t.dlig" horiz-adv-x="1572" 
d="M1454 295l80 -262q-129 -51 -256 -51q-184 0 -277 105t-93 289v381h-358v-758h-328v758h-190v286h190v74q0 187 105 297q105 109 302 109q114 0 195 -29l-78 -260q-32 6 -66 6q-62 0 -96 -31q-35 -32 -35 -91v-74h358v328h328v-328h281v-286h-281v-381q0 -109 108 -109
q60 0 111 27z" />
    <glyph glyph-name="t_t.dlig" horiz-adv-x="1564" 
d="M1446 295l80 -262q-129 -51 -256 -51q-184 0 -277 105t-93 289v381h-389v-381q0 -109 108 -109q59 0 111 27l78 -260q-129 -51 -256 -51q-184 0 -277 105t-93 289v381h-162v286h162v328h328v-328h389v328h328v-328h280v-286h-280v-381q0 -109 108 -109q60 0 111 27z" />
    <glyph glyph-name="zero.tnum" horiz-adv-x="1259" 
d="M630 -29v-1q-284 0 -448 207q-163 206 -163 539t163 539q164 207 448 207q285 0 447 -207t162 -538q0 -332 -162 -539t-447 -207zM630 278v-4q135 0 201 116t66 323t-66 323t-201 116q-136 0 -203 -115q-68 -116 -68 -322t68 -322q67 -115 203 -115z" />
    <glyph glyph-name="one.tnum" horiz-adv-x="1259" 
d="M860 307h258v-307h-942v307h340v752l-303 -139l-82 288l438 226h291v-1127z" />
    <glyph glyph-name="two.tnum" horiz-adv-x="1259" 
d="M637 307l542 1v-307h-1063v227l553 514q81 73 116 126q36 54 36 116q0 83 -49 129q-50 47 -135 47t-144 -58q-61 -59 -80 -154l-306 88q23 176 167 302t356 126q240 0 385 -120t145 -339q0 -129 -63 -234t-196 -226z" />
    <glyph glyph-name="three.tnum" horiz-adv-x="1259" 
d="M850 895l-3 -2q155 -38 249 -148t94 -279q0 -208 -151 -352t-376 -144q-253 0 -399 132t-177 318l301 86q18 -97 89 -170q71 -72 165 -72q102 0 162 60t60 142t-57 141t-158 59q-77 0 -129 -27l-55 197l231 294h-563v304h1010v-224z" />
    <glyph glyph-name="four.tnum" horiz-adv-x="1259" 
d="M1235 557v-299h-170v-258h-340v258h-666v246l473 930h365l-440 -877h268v258h340v-258h170z" />
    <glyph glyph-name="five.tnum" horiz-adv-x="1259" 
d="M719 944l-2 -1q205 0 339 -138q134 -139 134 -339q0 -212 -150 -354q-149 -142 -376 -142q-231 0 -376 115q-146 115 -192 285l305 86q28 -81 95 -136q66 -54 146 -54q101 0 162 59q60 59 60 149t-58 147t-165 57q-122 0 -213 -62l-270 80l61 738h907v-304h-606l-16 -221
q99 35 215 35z" />
    <glyph glyph-name="six.tnum" horiz-adv-x="1259" 
d="M698 991l-1 -1q223 -16 366 -156t143 -348q0 -221 -159 -368t-399 -147t-400 147t-160 370q0 143 100 303l408 643h383zM646 273l-1 1q101 0 161 60t60 154q0 90 -60 150t-161 60q-97 0 -159 -60q-61 -60 -61 -151q0 -94 60 -154t161 -60z" />
    <glyph glyph-name="seven.tnum" horiz-adv-x="1259" 
d="M123 1434h1053v-232l-525 -1202h-360l495 1126h-663v308z" />
    <glyph glyph-name="eight.tnum" horiz-adv-x="1259" 
d="M973 782l-4 -1q239 -111 237 -362q0 -190 -157 -319t-411 -129q-255 0 -412 128q-156 127 -156 321q0 254 237 362q-176 95 -176 294q0 164 140 275q139 111 369 111t369 -111q140 -111 140 -275q0 -199 -176 -294zM637 1197v1q-83 0 -132 -45t-49 -109q0 -66 49 -111
t132 -45t132 46t49 110q0 63 -49 108t-132 45zM637 254l-2 -2q103 0 165 56t62 140q0 86 -61 141t-165 55q-107 0 -166 -55q-60 -55 -60 -141q0 -84 60 -139q59 -55 167 -55z" />
    <glyph glyph-name="nine.tnum" horiz-adv-x="1259" 
d="M653 1462v2q240 0 399 -147t159 -370q0 -143 -100 -303l-407 -643h-383l280 442q-223 17 -366 156q-142 139 -142 348q0 221 160 368q161 147 400 147zM652 737h-1q97 0 159 60t62 150q0 94 -60 154t-160 60q-101 0 -161 -60t-60 -154q0 -90 60 -150t161 -60z" />
    <glyph glyph-name="zero.dnom" horiz-adv-x="841" 
d="M422 -23l-3 -1q-173 0 -277 117q-103 116 -103 318q0 200 104 316q103 115 278 115q167 0 273 -117q107 -118 107 -313q0 -202 -103 -318q-104 -117 -276 -117zM419 204v1q127 0 127 207q0 101 -31.5 151.5t-95.5 49.5q-129 0 -129 -202q0 -207 129 -207z" />
    <glyph glyph-name="one.dnom" horiz-adv-x="587" 
d="M276 819h209v-819h-243v549l-183 -84l-59 209z" />
    <glyph glyph-name="two.dnom" horiz-adv-x="731" 
d="M406 209l282 2v-209h-655v150l319 296q76 73 76 119q0 27 -19 45t-54 18q-79 0 -105 -125l-219 63q12 113 101 194q88 81 219 81q149 0 238 -71q88 -70 88 -198q0 -71 -28 -123t-94 -109z" />
    <glyph glyph-name="three.dnom" horiz-adv-x="743" 
d="M526 510l1 -5q81 -26 128 -88q48 -63 48 -155q0 -124 -91 -206q-92 -83 -228 -83q-161 0 -247 79q-87 80 -105 195l211 61q11 -59 46 -93q37 -35 89 -35q46 0 71 24q26 24 26 63t-27 66t-82 27q-38 0 -75 -6l-35 127l125 135h-320v203h613v-164z" />
    <glyph glyph-name="four.dnom" horiz-adv-x="729" 
d="M709 346v-205h-91v-141h-229v141h-379v183l262 495h252l-243 -473h108v113h229v-113h91z" />
    <glyph glyph-name="five.dnom" horiz-adv-x="716" 
d="M408 528v-2q123 0 195 -75t72 -194q0 -122 -85 -201q-86 -80 -220 -80q-143 0 -230 69q-86 68 -109 167l211 59q38 -90 118 -90q40 0 66 23q25 22 25 57q0 37 -26 61q-25 24 -71 24q-64 0 -116 -31l-175 56l39 448h535v-205h-338l-6 -100q47 14 115 14z" />
    <glyph glyph-name="six.dnom" horiz-adv-x="700" 
d="M399 563v2q119 -11 200 -90t81 -201q0 -129 -94 -213t-237 -84t-238 85t-91 214q5 84 58 175l229 368h248zM350 184v-1q44 0 72 26q27 25 27 66q0 39 -27 66t-72 27t-72 -27t-27 -66q0 -41 27 -66q26 -25 72 -25z" />
    <glyph glyph-name="seven.dnom" horiz-adv-x="638" 
d="M6 819h623v-166l-273 -653h-254l254 610h-350v209z" />
    <glyph glyph-name="eight.dnom" horiz-adv-x="739" 
d="M582 446l-1 -2q127 -67 127 -207q0 -113 -93 -186q-94 -74 -246 -74t-246 74q-93 73 -93 186q0 141 127 208q-92 56 -92 166q0 95 84 163q83 67 222 67q135 0 219 -66t84 -163q0 -110 -92 -166zM370 645l-4 -2q-39 0 -61 -19t-22 -50q0 -30 23 -50q22 -19 62 -19
q39 0 62 20t23 50q0 31 -22 50q-23 20 -61 20zM366 174q47 0 71 24t24 63q0 35 -25 59q-26 24 -70 24q-46 0 -71 -24q-26 -24 -26 -59q0 -39 25 -63q26 -24 72 -24z" />
    <glyph glyph-name="nine.dnom" horiz-adv-x="700" 
d="M350 842l-2 -2q144 0 239 -85q96 -86 92 -214q-5 -84 -57 -174l-230 -369h-248l156 256q-119 11 -200 90q-81 80 -81 201q0 129 95 213t236 84zM348 451v-1q45 0 72 27t27 66q0 41 -27 66q-28 26 -72 26q-46 0 -72 -25q-27 -26 -27 -66q0 -39 27 -66t72 -27z" />
    <glyph glyph-name="zero.numr" horiz-adv-x="841" 
d="M422 592l-3 1q-173 0 -277 117q-103 116 -103 318q0 200 104 315q103 114 278 114q167 0 273 -117q107 -118 107 -313q0 -202 -103 -318q-104 -117 -276 -117zM419 820q127 0 127 207q0 203 -127 203q-129 0 -129 -203q0 -207 129 -207z" />
    <glyph glyph-name="one.numr" horiz-adv-x="587" 
d="M276 1434h209v-820h-243v549l-183 -84l-59 209z" />
    <glyph glyph-name="two.numr" horiz-adv-x="731" 
d="M406 823l282 1v-209h-655v150l319 297q76 73 76 119q0 27 -19 45t-54 18q-79 0 -105 -125l-219 64q12 113 101 194q88 81 219 81q150 0 238 -70t88 -198q0 -71 -28 -123q-29 -53 -94 -111z" />
    <glyph glyph-name="three.numr" horiz-adv-x="743" 
d="M526 1124l1 -3q81 -26 128 -88q48 -63 48 -155q0 -124 -91 -206q-92 -83 -228 -83q-161 0 -247 79q-87 80 -105 193l211 62q11 -59 46 -93q37 -35 89 -35q46 0 71 24q26 24 26 63t-27 66t-82 27q-38 0 -75 -6l-35 127l125 135h-320v203h613v-164z" />
    <glyph glyph-name="four.numr" horiz-adv-x="729" 
d="M709 961v-205h-91v-142h-229v142h-379v182l262 496h252l-243 -473h108v112h229v-112h91z" />
    <glyph glyph-name="five.numr" horiz-adv-x="716" 
d="M408 1143v-2q123 0 195 -76q72 -77 72 -195q0 -122 -85 -201t-220 -79q-143 0 -230 69q-86 68 -109 167l211 60q38 -90 118 -90q40 0 66 23q25 22 25 57q0 37 -26 61q-25 24 -71 24q-64 0 -116 -31l-175 55l39 449h535v-205h-338l-6 -101q45 15 115 15z" />
    <glyph glyph-name="six.numr" horiz-adv-x="700" 
d="M399 1178v2q119 -11 200 -90q81 -80 81 -201q0 -129 -94 -213t-237 -84t-238 85t-91 214q5 85 58 174l229 369h248zM350 799v-1q44 0 72 26q27 26 27 66q0 39 -27 66t-72 27t-72 -27t-27 -66q0 -40 27 -66q26 -25 72 -25z" />
    <glyph glyph-name="seven.numr" horiz-adv-x="638" 
d="M6 1434h623v-166l-273 -654h-254l254 611h-350v209z" />
    <glyph glyph-name="eight.numr" horiz-adv-x="739" 
d="M582 1061l-1 -1q127 -67 127 -209q0 -113 -93 -186q-92 -73 -246 -73q-152 0 -246 74q-93 74 -93 186q0 142 127 209q-92 56 -92 166q0 96 84 162t222 66q135 0 219 -66t84 -162q0 -110 -92 -166zM370 1261l-4 -2q-39 0 -61 -19t-22 -51q0 -31 23 -51q22 -19 62 -19
q39 0 62 20t23 51q0 32 -22 51q-23 20 -61 20zM366 790v2q47 0 71 24t24 63q0 35 -25 59t-70 24q-46 0 -71 -25q-26 -26 -26 -60q0 -39 25 -63q26 -24 72 -24z" />
    <glyph glyph-name="nine.numr" horiz-adv-x="700" 
d="M350 1456l-2 -2q144 0 239 -85q96 -86 92 -214q-5 -84 -57 -174l-230 -369h-248l156 256q-119 11 -200 90q-81 80 -81 201q0 129 95 213q94 84 236 84zM348 1065v-1q45 0 72 27t27 66q0 41 -27 66q-28 26 -72 26q-46 0 -72 -25q-27 -26 -27 -66q0 -39 27 -66t72 -27z" />
    </font>
</defs>
</svg>
